<?xml version="1.0" encoding="UTF-8" standalone="no"?>
<svg
   xmlns:osb="http://www.openswatchbook.org/uri/2009/osb"
   xmlns:dc="http://purl.org/dc/elements/1.1/"
   xmlns:cc="http://creativecommons.org/ns#"
   xmlns:rdf="http://www.w3.org/1999/02/22-rdf-syntax-ns#"
   xmlns:svg="http://www.w3.org/2000/svg"
   xmlns="http://www.w3.org/2000/svg"
   xmlns:xlink="http://www.w3.org/1999/xlink"
   xmlns:sodipodi="http://sodipodi.sourceforge.net/DTD/sodipodi-0.dtd"
   xmlns:inkscape="http://www.inkscape.org/namespaces/inkscape"
   version="1.1"
   id="svg833"
   width="1920"
   height="1234"
   viewBox="0 0 1920 1234"
   sodipodi:docname="eng.svg"
   inkscape:export-filename="eng.png"
   inkscape:export-xdpi="96"
   inkscape:export-ydpi="96"
   inkscape:version="1.0.1 (3bc2e813f5, 2020-09-07)">
  <metadata
     id="metadata839">
    <rdf:RDF>
      <cc:Work
         rdf:about="">
        <dc:format>image/svg+xml</dc:format>
        <dc:type
           rdf:resource="http://purl.org/dc/dcmitype/StillImage" />
        <dc:title />
      </cc:Work>
    </rdf:RDF>
  </metadata>
  <defs
     id="defs837">
    <pattern
       inkscape:collect="always"
       xlink:href="#pattern6569"
       id="pattern1350"
       patternTransform="matrix(9.6905503,0,0,-12.443327,-286.03998,1898.9017)" />
    <pattern
       inkscape:collect="always"
       xlink:href="#pattern6049"
       id="pattern6569"
       patternTransform="matrix(9.6905503,0,0,-12.443327,-286.03998,1898.9017)" />
    <marker
       style="overflow:visible;"
       id="marker6092"
       refX="0.0"
       refY="0.0"
       orient="auto"
       inkscape:stockid="Arrow1Lend"
       inkscape:isstock="true">
      <path
         transform="scale(0.8) rotate(180) translate(12.5,0)"
         style="fill-rule:evenodd;stroke:#1c1313;stroke-width:1pt;stroke-opacity:1;fill:#ff0000;fill-opacity:1"
         d="M 0.0,0.0 L 5.0,-5.0 L -12.5,0.0 L 5.0,5.0 L 0.0,0.0 z "
         id="path6090" />
    </marker>
    <pattern
       inkscape:collect="always"
       xlink:href="#pattern6020"
       id="pattern6049"
       patternTransform="matrix(9.6905503,0,0,-12.443327,-286.03998,1898.9017)" />
    <pattern
       inkscape:collect="always"
       xlink:href="#pattern5991"
       id="pattern6020"
       patternTransform="matrix(8.7480874,0,0,-8.4397554,-161.37574,1448.1724)" />
    <pattern
       inkscape:collect="always"
       xlink:href="#pattern5962"
       id="pattern5991"
       patternTransform="matrix(8.7480874,0,0,-8.4397554,-668.40102,1870.0333)" />
    <pattern
       inkscape:collect="always"
       xlink:href="#pattern5933"
       id="pattern5962"
       patternTransform="matrix(10,0,0,10,-835.7995,-196.07618)" />
    <pattern
       inkscape:collect="always"
       xlink:href="#pattern5904"
       id="pattern5933"
       patternTransform="matrix(10,0,0,10,-594.17026,-305.00739)" />
    <pattern
       inkscape:collect="always"
       xlink:href="#pattern5875"
       id="pattern5904"
       patternTransform="matrix(10,0,0,10,-170.32881,-443.64712)" />
    <pattern
       inkscape:collect="always"
       xlink:href="#pattern5756"
       id="pattern5875"
       patternTransform="matrix(10,0,0,10,-168.34824,-473.35563)" />
    <pattern
       inkscape:collect="always"
       xlink:href="#Strips1_1white"
       id="pattern5756"
       patternTransform="matrix(10,0,0,10,-3.961135,-5.9417025)" />
    <marker
       style="overflow:visible"
       id="Tail"
       refX="0.0"
       refY="0.0"
       orient="auto"
       inkscape:stockid="Tail"
       inkscape:isstock="true">
      <g
         transform="scale(-1.2)"
         id="g3422"
         style="stroke:#000000;stroke-opacity:1;fill:url(#pattern1350);fill-opacity:1">
        <path
           style="fill:url(#pattern1350);fill-rule:evenodd;stroke:#000000;stroke-width:0.8;stroke-linecap:round;stroke-opacity:1;fill-opacity:1"
           d="M -3.8048674,-3.9585227 L 0.54352094,0"
           id="path3410" />
        <path
           style="fill:url(#pattern1350);fill-rule:evenodd;stroke:#000000;stroke-width:0.8;stroke-linecap:round;stroke-opacity:1;fill-opacity:1"
           d="M -1.2866832,-3.9585227 L 3.0617053,0"
           id="path3412" />
        <path
           style="fill:url(#pattern1350);fill-rule:evenodd;stroke:#000000;stroke-width:0.8;stroke-linecap:round;stroke-opacity:1;fill-opacity:1"
           d="M 1.3053582,-3.9585227 L 5.6537466,0"
           id="path3414" />
        <path
           style="fill:url(#pattern1350);fill-rule:evenodd;stroke:#000000;stroke-width:0.8;stroke-linecap:round;stroke-opacity:1;fill-opacity:1"
           d="M -3.8048674,4.1775838 L 0.54352094,0.21974226"
           id="path3416" />
        <path
           style="fill:url(#pattern1350);fill-rule:evenodd;stroke:#000000;stroke-width:0.8;stroke-linecap:round;stroke-opacity:1;fill-opacity:1"
           d="M -1.2866832,4.1775838 L 3.0617053,0.21974226"
           id="path3418" />
        <path
           style="fill:url(#pattern1350);fill-rule:evenodd;stroke:#000000;stroke-width:0.8;stroke-linecap:round;stroke-opacity:1;fill-opacity:1"
           d="M 1.3053582,4.1775838 L 5.6537466,0.21974226"
           id="path3420" />
      </g>
    </marker>
    <marker
       style="overflow:visible"
       id="marker5458"
       refX="0.0"
       refY="0.0"
       orient="auto"
       inkscape:stockid="Arrow1Lstart"
       inkscape:isstock="true">
      <path
         transform="scale(0.8) translate(12.5,0)"
         style="fill-rule:evenodd;stroke:#000000;stroke-width:1pt;stroke-opacity:1;fill:url(#pattern5756);fill-opacity:1"
         d="M 0.0,0.0 L 5.0,-5.0 L -12.5,0.0 L 5.0,5.0 L 0.0,0.0 z "
         id="path5456" />
    </marker>
    <marker
       style="overflow:visible"
       id="Arrow2Sstart"
       refX="0.0"
       refY="0.0"
       orient="auto"
       inkscape:stockid="Arrow2Sstart"
       inkscape:isstock="true">
      <path
         transform="scale(0.3) translate(-2.3,0)"
         d="M 8.7185878,4.0337352 L -2.2072895,0.016013256 L 8.7185884,-4.0017078 C 6.9730900,-1.6296469 6.9831476,1.6157441 8.7185878,4.0337352 z "
         style="fill-rule:evenodd;stroke-width:0.625;stroke-linejoin:round;stroke:#1c1313;stroke-opacity:1;fill:#ff0000;fill-opacity:1"
         id="path3404" />
    </marker>
    <marker
       style="overflow:visible;"
       id="marker4252"
       refX="0.0"
       refY="0.0"
       orient="auto"
       inkscape:stockid="Arrow2Lend"
       inkscape:isstock="true">
      <path
         transform="scale(1.1) rotate(180) translate(1,0)"
         d="M 8.7185878,4.0337352 L -2.2072895,0.016013256 L 8.7185884,-4.0017078 C 6.9730900,-1.6296469 6.9831476,1.6157441 8.7185878,4.0337352 z "
         style="fill-rule:evenodd;stroke-width:0.625;stroke-linejoin:round;stroke:#000000;stroke-opacity:1;fill:url(#Strips1_1white);fill-opacity:1"
         id="path4250" />
    </marker>
    <marker
       style="overflow:visible"
       id="Arrow2Lstart"
       refX="0.0"
       refY="0.0"
       orient="auto"
       inkscape:stockid="Arrow2Lstart"
       inkscape:isstock="true">
      <path
         transform="scale(1.1) translate(1,0)"
         d="M 8.7185878,4.0337352 L -2.2072895,0.016013256 L 8.7185884,-4.0017078 C 6.9730900,-1.6296469 6.9831476,1.6157441 8.7185878,4.0337352 z "
         style="fill-rule:evenodd;stroke-width:0.625;stroke-linejoin:round;stroke:#000000;stroke-opacity:1;fill:url(#Strips1_1white);fill-opacity:1"
         id="path3392" />
    </marker>
    <marker
       style="overflow:visible"
       id="marker4090"
       refX="0.0"
       refY="0.0"
       orient="auto"
       inkscape:stockid="Arrow1Lstart"
       inkscape:isstock="true">
      <path
         transform="scale(0.8) translate(12.5,0)"
         style="fill-rule:evenodd;stroke:#000000;stroke-width:1pt;stroke-opacity:1;fill:url(#Strips1_1white);fill-opacity:1"
         d="M 0.0,0.0 L 5.0,-5.0 L -12.5,0.0 L 5.0,5.0 L 0.0,0.0 z "
         id="path4088" />
    </marker>
    <marker
       style="overflow:visible"
       id="marker4026"
       refX="0.0"
       refY="0.0"
       orient="auto"
       inkscape:stockid="Arrow1Lstart"
       inkscape:isstock="true">
      <path
         transform="scale(0.8) translate(12.5,0)"
         style="fill-rule:evenodd;stroke:#000000;stroke-width:1pt;stroke-opacity:1;fill:url(#Strips1_1white);fill-opacity:1"
         d="M 0.0,0.0 L 5.0,-5.0 L -12.5,0.0 L 5.0,5.0 L 0.0,0.0 z "
         id="path4024" />
    </marker>
    <marker
       style="overflow:visible;"
       id="Arrow1Lend"
       refX="0.0"
       refY="0.0"
       orient="auto"
       inkscape:stockid="Arrow1Lend"
       inkscape:isstock="true">
      <path
         transform="scale(0.8) rotate(180) translate(12.5,0)"
         style="fill-rule:evenodd;stroke:#1c1313;stroke-width:1pt;stroke-opacity:1;fill:#ff0000;fill-opacity:1"
         d="M 0.0,0.0 L 5.0,-5.0 L -12.5,0.0 L 5.0,5.0 L 0.0,0.0 z "
         id="path3377" />
    </marker>
    <marker
       style="overflow:visible;"
       id="marker3698"
       refX="0.0"
       refY="0.0"
       orient="auto"
       inkscape:stockid="Arrow2Lend"
       inkscape:isstock="true">
      <path
         transform="scale(1.1) rotate(180) translate(1,0)"
         d="M 8.7185878,4.0337352 L -2.2072895,0.016013256 L 8.7185884,-4.0017078 C 6.9730900,-1.6296469 6.9831476,1.6157441 8.7185878,4.0337352 z "
         style="fill-rule:evenodd;stroke-width:0.625;stroke-linejoin:round;stroke:#000000;stroke-opacity:1;fill:url(#Strips1_1white);fill-opacity:1"
         id="path3696" />
    </marker>
    <marker
       style="overflow:visible;"
       id="Arrow2Send"
       refX="0.0"
       refY="0.0"
       orient="auto"
       inkscape:stockid="Arrow2Send"
       inkscape:isstock="true">
      <path
         transform="scale(0.3) rotate(180) translate(-2.3,0)"
         d="M 8.7185878,4.0337352 L -2.2072895,0.016013256 L 8.7185884,-4.0017078 C 6.9730900,-1.6296469 6.9831476,1.6157441 8.7185878,4.0337352 z "
         style="fill-rule:evenodd;stroke-width:0.625;stroke-linejoin:round;stroke:#1c1313;stroke-opacity:1;fill:#ff0000;fill-opacity:1"
         id="path3407" />
    </marker>
    <marker
       style="overflow:visible"
       id="Arrow1Lstart"
       refX="0.0"
       refY="0.0"
       orient="auto"
       inkscape:stockid="Arrow1Lstart"
       inkscape:isstock="true">
      <path
         transform="scale(0.8) translate(12.5,0)"
         style="fill-rule:evenodd;stroke:#1c1313;stroke-width:1pt;stroke-opacity:1;fill:#ff0000;fill-opacity:1"
         d="M 0.0,0.0 L 5.0,-5.0 L -12.5,0.0 L 5.0,5.0 L 0.0,0.0 z "
         id="path3374" />
    </marker>
    <marker
       style="overflow:visible;"
       id="Arrow2Lend"
       refX="0.0"
       refY="0.0"
       orient="auto"
       inkscape:stockid="Arrow2Lend"
       inkscape:isstock="true">
      <path
         transform="scale(1.1) rotate(180) translate(1,0)"
         d="M 8.7185878,4.0337352 L -2.2072895,0.016013256 L 8.7185884,-4.0017078 C 6.9730900,-1.6296469 6.9831476,1.6157441 8.7185878,4.0337352 z "
         style="fill-rule:evenodd;stroke-width:0.625;stroke-linejoin:round;stroke:#1c1313;stroke-opacity:1;fill:#ff0000;fill-opacity:1"
         id="path3395" />
    </marker>
    <inkscape:path-effect
       effect="powerstroke"
       id="path-effect3336"
       is_visible="true"
       lpeversion="1"
       offset_points="4,0.493781"
       sort_points="true"
       interpolator_type="CubicBezierJohan"
       interpolator_beta="0.2"
       start_linecap_type="zerowidth"
       linejoin_type="extrp_arc"
       miter_limit="4"
       scale_width="1"
       end_linecap_type="zerowidth" />
    <pattern
       inkscape:collect="always"
       patternUnits="userSpaceOnUse"
       width="2"
       height="1"
       patternTransform="translate(0,0) scale(10,10)"
       id="Strips1_1white"
       inkscape:stockid="Stripes 1:1 white"
       inkscape:isstock="true">
      <rect
         style="fill:white;stroke:none"
         x="0"
         y="-0.5"
         width="1"
         height="2"
         id="rect2353" />
    </pattern>
    <linearGradient
       id="linearGradient1386"
       osb:paint="solid">
      <stop
         style="stop-color:#000000;stop-opacity:1;"
         offset="0"
         id="stop1384" />
    </linearGradient>
    <inkscape:path-effect
       effect="spiro"
       id="path-effect1380"
       is_visible="true"
       lpeversion="1" />
    <rect
       x="865.508"
       y="744.69338"
       width="495.14187"
       height="203.99845"
       id="rect1122" />
    <rect
       x="671.41238"
       y="465.43336"
       width="625.85933"
       height="312.92966"
       id="rect1051" />
    <rect
       x="293.12399"
       y="520.88925"
       width="271.33775"
       height="136.65916"
       id="rect1045" />
    <inkscape:path-effect
       effect="spiro"
       id="path-effect1041"
       is_visible="true"
       lpeversion="1" />
    <inkscape:path-effect
       effect="spiro"
       id="path-effect1035"
       is_visible="true"
       lpeversion="1" />
    <rect
       x="316.8908"
       y="520.88925"
       width="324.81307"
       height="124.77575"
       id="rect1029" />
    <rect
       x="976.41978"
       y="582.28684"
       width="400.07463"
       height="207.95959"
       id="rect1015" />
    <rect
       x="544.65606"
       y="673.39295"
       width="419.88031"
       height="231.7264"
       id="rect963" />
    <rect
       x="362.44385"
       y="576.34514"
       width="330.75477"
       height="144.58143"
       id="rect957" />
    <filter
       inkscape:collect="always"
       style="color-interpolation-filters:sRGB"
       id="filter1308"
       x="-0.00022145805"
       width="1.0004429"
       y="-0.00034579588"
       height="1.0006916">
      <feGaussianBlur
         inkscape:collect="always"
         stdDeviation="0.17651087"
         id="feGaussianBlur1310" />
    </filter>
  </defs>
  <sodipodi:namedview
     pagecolor="#ffffff"
     bordercolor="#666666"
     borderopacity="1"
     objecttolerance="10"
     gridtolerance="10"
     guidetolerance="10"
     inkscape:pageopacity="0"
     inkscape:pageshadow="2"
     inkscape:window-width="1920"
     inkscape:window-height="986"
     id="namedview835"
     showgrid="false"
     inkscape:zoom="0.35702231"
     inkscape:cx="965.14944"
     inkscape:cy="514.22824"
     inkscape:window-x="-11"
     inkscape:window-y="-11"
     inkscape:window-maximized="1"
     inkscape:current-layer="g841"
     inkscape:document-rotation="0"
     showguides="false" />
  <g
     inkscape:groupmode="layer"
     inkscape:label="Image"
     id="g841">
    <path
       style="opacity:0.912024;fill:#e47b35;fill-opacity:0;stroke-width:1.98057"
       d="m -262.69191,730.94904 c -74.82348,-17.27322 -125.49011,-72.85837 -132.82566,-145.71984 -2.64943,-26.31578 7.1968,-64.02666 23.08395,-88.41121 9.88292,-15.16889 31.05729,-35.53223 45.57118,-43.8257 18.16465,-10.37956 38.6971,-16.12408 65.442,-18.30919 22.65775,-1.85119 25.56155,-2.58236 43.43315,-10.93646 34.43115,-16.09487 60.89856,-18.34409 92.20315,-7.83548 57.599581,19.33553 95.197981,78.54875 91.162575,143.57066 -4.717454,76.01153 -61.83708,143.78532 -141.216085,167.55627 -14.65192,4.38769 -22.25538,5.36623 -46.25263,5.95258 -19.73093,0.48211 -32.43711,-0.15686 -40.60163,-2.04163 z"
       id="path1126" />
    <path
       style="opacity:0.912024;fill:#e47b35;fill-opacity:0;stroke-width:1.98057"
       d="m -262.69191,730.94904 c -74.82348,-17.27322 -125.49011,-72.85837 -132.82566,-145.71984 -2.64943,-26.31578 7.1968,-64.02666 23.08395,-88.41121 9.88292,-15.16889 31.05729,-35.53223 45.57118,-43.8257 18.16465,-10.37956 38.6971,-16.12408 65.442,-18.30919 22.65775,-1.85119 25.56155,-2.58236 43.43315,-10.93646 34.43115,-16.09487 60.89856,-18.34409 92.20315,-7.83548 57.599581,19.33553 95.197981,78.54875 91.162575,143.57066 -4.717454,76.01153 -61.83708,143.78532 -141.216085,167.55627 -14.65192,4.38769 -22.25538,5.36623 -46.25263,5.95258 -19.73093,0.48211 -32.43711,-0.15686 -40.60163,-2.04163 z"
       id="path1128" />
    <path
       style="opacity:0.912024;fill:#e47b35;fill-opacity:0;stroke-width:1.98057"
       d="m -262.69191,730.94904 c -74.82348,-17.27322 -125.49011,-72.85837 -132.82566,-145.71984 -2.64943,-26.31578 7.1968,-64.02666 23.08395,-88.41121 9.88292,-15.16889 31.05729,-35.53223 45.57118,-43.8257 18.16465,-10.37956 38.6971,-16.12408 65.442,-18.30919 22.65775,-1.85119 25.56155,-2.58236 43.43315,-10.93646 34.43115,-16.09487 60.89856,-18.34409 92.20315,-7.83548 57.599581,19.33553 95.197981,78.54875 91.162575,143.57066 -4.717454,76.01153 -61.83708,143.78532 -141.216085,167.55627 -14.65192,4.38769 -22.25538,5.36623 -46.25263,5.95258 -19.73093,0.48211 -32.43711,-0.15686 -40.60163,-2.04163 z"
       id="path1130" />
    <path
       style="opacity:0.912024;fill:#e47b35;fill-opacity:0;stroke-width:1.98057"
       d="m -262.69191,730.94904 c -74.82348,-17.27322 -125.49011,-72.85837 -132.82566,-145.71984 -2.64943,-26.31578 7.1968,-64.02666 23.08395,-88.41121 9.88292,-15.16889 31.05729,-35.53223 45.57118,-43.8257 18.16465,-10.37956 38.6971,-16.12408 65.442,-18.30919 22.65775,-1.85119 25.56155,-2.58236 43.43315,-10.93646 34.43115,-16.09487 60.89856,-18.34409 92.20315,-7.83548 57.599581,19.33553 95.197981,78.54875 91.162575,143.57066 -4.717454,76.01153 -61.83708,143.78532 -141.216085,167.55627 -14.65192,4.38769 -22.25538,5.36623 -46.25263,5.95258 -19.73093,0.48211 -32.43711,-0.15686 -40.60163,-2.04163 z"
       id="path1132" />
    <path
       style="opacity:0.912024;fill:#e47b35;fill-opacity:0;stroke-width:1.98057"
       d="m -262.69191,730.94904 c -74.82348,-17.27322 -125.49011,-72.85837 -132.82566,-145.71984 -2.64943,-26.31578 7.1968,-64.02666 23.08395,-88.41121 9.88292,-15.16889 31.05729,-35.53223 45.57118,-43.8257 18.16465,-10.37956 38.6971,-16.12408 65.442,-18.30919 22.65775,-1.85119 25.56155,-2.58236 43.43315,-10.93646 34.43115,-16.09487 60.89856,-18.34409 92.20315,-7.83548 57.599581,19.33553 95.197981,78.54875 91.162575,143.57066 -4.717454,76.01153 -61.83708,143.78532 -141.216085,167.55627 -14.65192,4.38769 -22.25538,5.36623 -46.25263,5.95258 -19.73093,0.48211 -32.43711,-0.15686 -40.60163,-2.04163 z"
       id="path1134" />
    <path
       style="opacity:0.912024;fill:#e47b35;fill-opacity:0;stroke-width:1.98057"
       d="m -262.69191,730.94904 c -74.82348,-17.27322 -125.49011,-72.85837 -132.82566,-145.71984 -2.64943,-26.31578 7.1968,-64.02666 23.08395,-88.41121 9.88292,-15.16889 31.05729,-35.53223 45.57118,-43.8257 18.16465,-10.37956 38.6971,-16.12408 65.442,-18.30919 22.65775,-1.85119 25.56155,-2.58236 43.43315,-10.93646 34.43115,-16.09487 60.89856,-18.34409 92.20315,-7.83548 57.599581,19.33553 95.197981,78.54875 91.162575,143.57066 -4.717454,76.01153 -61.83708,143.78532 -141.216085,167.55627 -14.65192,4.38769 -22.25538,5.36623 -46.25263,5.95258 -19.73093,0.48211 -32.43711,-0.15686 -40.60163,-2.04163 z"
       id="path1136" />
    <path
       style="opacity:0.912024;fill:#e47b35;fill-opacity:0;stroke-width:1.98057"
       d="m -262.69191,730.94904 c -74.82348,-17.27322 -125.49011,-72.85837 -132.82566,-145.71984 -2.64943,-26.31578 7.1968,-64.02666 23.08395,-88.41121 9.88292,-15.16889 31.05729,-35.53223 45.57118,-43.8257 18.16465,-10.37956 38.6971,-16.12408 65.442,-18.30919 22.65775,-1.85119 25.56155,-2.58236 43.43315,-10.93646 34.43115,-16.09487 60.89856,-18.34409 92.20315,-7.83548 57.599581,19.33553 95.197981,78.54875 91.162575,143.57066 -4.717454,76.01153 -61.83708,143.78532 -141.216085,167.55627 -14.65192,4.38769 -22.25538,5.36623 -46.25263,5.95258 -19.73093,0.48211 -32.43711,-0.15686 -40.60163,-2.04163 z"
       id="path1138" />
    <path
       style="opacity:0.912024;fill:#e47b35;fill-opacity:0;stroke-width:1.98057"
       d="m -262.69191,730.94904 c -74.82348,-17.27322 -125.49011,-72.85837 -132.82566,-145.71984 -2.64943,-26.31578 7.1968,-64.02666 23.08395,-88.41121 9.88292,-15.16889 31.05729,-35.53223 45.57118,-43.8257 18.16465,-10.37956 38.6971,-16.12408 65.442,-18.30919 22.65775,-1.85119 25.56155,-2.58236 43.43315,-10.93646 34.43115,-16.09487 60.89856,-18.34409 92.20315,-7.83548 57.599581,19.33553 95.197981,78.54875 91.162575,143.57066 -4.717454,76.01153 -61.83708,143.78532 -141.216085,167.55627 -14.65192,4.38769 -22.25538,5.36623 -46.25263,5.95258 -19.73093,0.48211 -32.43711,-0.15686 -40.60163,-2.04163 z"
       id="path1140" />
    <path
       style="opacity:0.912024;fill:#e47b35;fill-opacity:0;stroke-width:1.98057"
       d="m -262.69191,730.94904 c -74.82348,-17.27322 -125.49011,-72.85837 -132.82566,-145.71984 -2.64943,-26.31578 7.1968,-64.02666 23.08395,-88.41121 9.88292,-15.16889 31.05729,-35.53223 45.57118,-43.8257 18.16465,-10.37956 38.6971,-16.12408 65.442,-18.30919 22.65775,-1.85119 25.56155,-2.58236 43.43315,-10.93646 34.43115,-16.09487 60.89856,-18.34409 92.20315,-7.83548 57.599581,19.33553 95.197981,78.54875 91.162575,143.57066 -4.717454,76.01153 -61.83708,143.78532 -141.216085,167.55627 -14.65192,4.38769 -22.25538,5.36623 -46.25263,5.95258 -19.73093,0.48211 -32.43711,-0.15686 -40.60163,-2.04163 z"
       id="path1142" />
    <path
       style="fill:#333781;fill-opacity:0.870588;stroke:#000000;stroke-width:1px;stroke-linecap:butt;stroke-linejoin:miter;stroke-opacity:1"
       d="m 1626.046,1073.4676 c 19.6386,-19.2497 33.4107,-44.407 39.045,-71.3232 5.6344,-26.91625 3.1087,-55.48512 -7.1603,-80.99539 -10.2691,-25.51028 -28.2411,-47.86128 -50.9522,-63.36712 -22.7112,-15.50583 -50.0719,-24.10531 -77.5701,-24.3803 -27.4982,-0.27498 -55.0254,7.77561 -78.0421,22.82416 -23.0168,15.04855 -41.4321,37.03566 -52.2093,62.33548 -10.7772,25.29981 -13.8736,53.81246 -8.7787,80.83596 5.095,27.02351 18.3612,52.45121 37.6109,72.08981 0.6536,0.6668 1.3138,1.327 1.9806,1.9806 25.8514,25.3395 61.8388,40.0356 98.0381,40.0356 36.1993,0 72.1867,-14.6961 98.0381,-40.0356 z"
       id="path1378"
       inkscape:path-effect="#path-effect1380"
       inkscape:original-d="m 1626.046,1073.4676 c 65.3577,0 -132.0369,-1.3194 -198.0568,-1.9806 -66.0199,-0.6611 1.3214,1.3214 1.9806,1.9806 0.6592,0.6592 130.7184,10e-4 196.0762,0 z" />
    <rect
       style="opacity:0.794344;fill:#35353d;fill-opacity:1;stroke-width:1.05634;filter:url(#filter1308)"
       id="rect845"
       width="1912.8954"
       height="1225.0756"
       x="7.0068731"
       y="10.553827"
       ry="134.67859"
       transform="matrix(1,0,0,1.0101183,3.6517731e-7,-6.9006338)" />
    <rect
       style="opacity:0.794344;fill:#ffffec;fill-opacity:1;filter:url(#filter1308)"
       id="rect1011"
       width="400.07465"
       height="150.52313"
       x="115.69431"
       y="201.30168"
       ry="75.261566" />
    <path
       style="opacity:0.794344;fill:#ff7000;fill-opacity:1;filter:url(#filter1308)"
       id="path901"
       d="m 161.79537,224.07822 c -0.0103,28.22612 0.0135,56.45225 0,84.67837 -0.002,4.21053 -0.0129,8.42105 -0.0183,12.63158 -7e-4,0.5458 -0.49642,1.41055 0,1.63742 2.28553,1.04452 4.89367,1.14487 7.3405,1.7173 -0.72679,0.38956 -1.45358,0.77912 -2.18038,1.16868 0,0 0.92617,-7.40938 0.92617,-7.40938 v 0 c -1.35057,0.31159 -2.70115,0.62318 -4.05172,0.93476 1.82305,1.19622 3.41547,2.85596 5.46916,3.58864 0.51407,0.18341 7e-4,-1.09162 0,-1.63742 -0.005,-4.21053 -0.0163,-8.42105 -0.0183,-12.63158 -0.0135,-28.22612 0.0103,-56.45225 0,-84.67837 0,0 -7.46703,0 -7.46703,0 z" />
    <path
       style="opacity:0.794344;fill:#ff7000;fill-opacity:1;filter:url(#filter1308)"
       id="path903"
       d="m 177.69263,283.95209 c 15.36061,0.0292 30.72123,0 46.08187,0 0,0 0,-7.46703 0,-7.46703 v 0 c -15.36064,0 -30.72126,-0.0292 -46.08187,0 0,0 0,7.46703 0,7.46703 z" />
    <path
       style="opacity:0.794344;fill:#ff7000;fill-opacity:1;filter:url(#filter1308)"
       id="path907"
       d="m 229.17296,239.98466 c -0.0158,17.42689 -0.009,34.8538 -0.009,52.2807 0,8.17739 0,16.35477 0,24.53216 0,0 7.46703,0 7.46703,0 v 0 c 0,-8.17739 0,-16.35477 0,-24.53216 0,-17.4269 0.007,-34.85381 -0.009,-52.2807 0,0 -7.44869,0 -7.44869,0 z" />
    <path
       style="opacity:0.794344;fill:#ff7000;fill-opacity:1;filter:url(#filter1308)"
       id="path909"
       d="m 260.03181,283.95209 c 8.47002,1.20675 16.67377,3.80457 25.20299,4.64084 1.18404,0.11609 2.56343,0.67342 3.56894,0.0375 5.24386,-3.31626 4.28689,-5.17221 4.55079,-10.17955 -0.29099,-6.38453 -0.46079,-4.423 0.39292,-11.20073 0.721,-5.72417 1.83561,-11.49497 -3.14455,-16.01779 -1.68032,-1.52602 -4.07878,-1.99308 -6.11817,-2.98962 -6.21135,-0.63612 -12.07673,1.40867 -18.14568,2.25533 -1.68337,0.23485 -5.90981,0.3076 -7.45719,1.35723 -1.82907,1.2407 -3.13216,3.11913 -4.69825,4.6787 -4.46772,9.28755 -3.15355,19.46301 -2.43301,29.37111 0.17389,2.40672 -0.4711,4.77847 -0.10672,7.20062 0.5183,3.4453 2.39731,10.22989 5.12784,12.98916 1.48691,1.50256 3.66907,2.10054 5.5036,3.15081 3.3431,1.40679 7.27256,-0.3617 10.6458,0.7695 1.42598,0.4782 8.65598,7.69626 8.66212,7.70199 5.56258,5.20396 2.89652,3.43307 9.13096,6.24364 6.16107,0.057 11.1888,-1.89515 14.50643,-7.30354 10.73276,-17.49653 -4.32924,4.2038 4.78904,-8.65689 0,0 -6.124,-4.20792 -6.124,-4.20792 v 0 c -1.04033,1.55006 -2.22161,3.01431 -3.12098,4.65018 -2.83872,5.1634 -0.95744,5.82651 -7.32548,8.56613 -4.1967,-1.14184 -1.68289,-0.0924 -6.75829,-4.7478 -7.60671,-6.97718 -10.62758,-11.00137 -21.46087,-9.87715 -0.67066,-0.0248 -1.51188,0.37307 -2.01199,-0.0745 -1.14062,-1.0207 -1.79729,-2.50296 -2.42716,-3.89798 -2.20667,-4.88723 -1.58043,-8.11286 -1.58293,-13.04788 -0.58476,-8.04092 -1.66149,-16.22776 0.75733,-24.09198 0.32597,-0.7455 0.37116,-1.69439 0.97791,-2.2365 0.99077,-0.88521 6.32274,-1.12792 6.63639,-1.17202 4.81397,-0.67676 9.50142,-1.86684 14.29584,-2.62771 0.87484,0.0951 1.84448,-0.1221 2.62452,0.28524 4.14713,2.16564 2.21903,7.64329 1.82621,10.99975 -0.86246,7.36932 -0.73427,5.54248 -0.4258,11.72325 0.0151,1.25076 -1.00301,5.99767 2.91337,2.91986 0.65867,-0.51764 -1.67911,0.1184 -2.51294,0.0375 -2.1139,-0.20502 -4.21906,-0.51282 -6.30856,-0.89311 -3.01282,-0.54832 -5.99344,-1.2608 -8.99016,-1.8912 -3.65343,-0.64386 -7.30685,-1.28772 -10.96027,-1.93157 0,0 0,7.46703 0,7.46703 z" />
    <path
       style="opacity:0.794344;fill:#ff7000;fill-opacity:1;filter:url(#filter1308)"
       id="path911"
       d="m 324.60238,230.62793 c -0.0152,20.93568 0.0183,41.87138 0.0183,62.80702 -0.0317,6.92497 -10e-4,13.84981 -0.0183,20.77485 0.0221,8.84747 0.0233,4.89279 0.009,11.86404 0,0 7.44868,0 7.44868,0 v 0 c -0.0141,-6.97125 -0.0129,-3.01657 0.009,-11.86404 -0.0169,-6.92504 0.0134,-13.84988 -0.0183,-20.77485 0,-20.93564 0.0335,-41.87134 0.0183,-62.80702 0,0 -7.46704,0 -7.46704,0 z" />
    <path
       style="opacity:0.794344;fill:#ff7000;fill-opacity:1;filter:url(#filter1308)"
       id="path913"
       d="m 357.36626,221.60922 c 1.85163,20.91368 1.44703,41.87207 0.82365,62.81706 0.11865,11.77659 0.15522,23.55305 0.11131,35.33053 -0.0167,4.58247 -0.009,2.66718 -0.0219,5.74585 0,0 7.46697,0.0312 7.46697,0.0312 v 0 c 0.0129,-3.08604 0.005,-1.16604 0.022,-5.76 0.01,-11.70321 -0.035,-23.40562 -0.15185,-35.10806 0.7392,-21.24996 0.98467,-42.51324 -0.81377,-63.73265 0,0 -7.43636,0.67603 -7.43636,0.67603 z" />
    <path
       style="opacity:0.794344;fill:#ff7000;fill-opacity:1;filter:url(#filter1308)"
       id="path915"
       d="m 373.5509,262.4408 c 0,9.7076 0,19.4152 0,29.1228 0.39173,5.77783 -1.63887,12.78031 2.46784,17.66698 0.59317,0.70584 1.33666,1.27028 2.00499,1.90541 8.07741,6.6874 12.73906,5.80312 22.60398,4.69111 2.28101,-0.22421 4.70009,-0.0851 6.54934,-1.86265 3.45595,-3.32193 4.48171,-10.48395 5.72528,-15.00018 0.0248,-7.42353 -0.61412,-14.82252 -0.4546,-22.26552 0.12208,-4.4433 0.73265,-8.99355 -1.20189,-13.17109 -0.61777,-1.33404 -1.55669,-2.49437 -2.33504,-3.74155 -1.73249,-3.63059 -3.63956,-5.17397 -7.90956,-4.81454 -0.92673,0.078 -1.73235,0.70382 -2.64236,0.8957 -2.66022,0.56092 -5.76721,0.56274 -8.44568,0.67227 -5.35607,-0.40335 -7.31495,-1.86258 -9.80337,5.55132 -0.12696,0.37826 0.82365,10.10114 0.85637,10.4508 -0.20494,0.96484 -0.40989,1.92968 -0.61484,2.89451 0,0 6.74418,1.16022 6.74418,1.16022 v 0 c 0.22877,-1.55629 0.45753,-3.11258 0.6863,-4.66887 -0.14874,-1.71785 -0.29681,-3.43575 -0.44621,-5.15354 -0.12096,-1.39078 0.66103,-3.22535 -0.36485,-4.17217 -0.91101,-0.84081 -2.51316,0.0502 -3.69472,0.42545 -0.41064,0.1304 0.81825,0.28318 1.24341,0.35297 2.15996,0.35455 3.41156,0.17078 5.75011,0.1035 3.80797,-0.23097 6.95327,-0.29871 10.73688,-1.06802 2.27772,-0.46312 0.59084,-0.68037 0.18945,-1.46452 -0.0641,-0.12518 0.26096,-0.10491 0.39144,-0.15737 0.49379,0.87532 0.98757,1.75064 1.48135,2.62596 0.67743,1.09515 1.91066,2.72238 2.07418,4.14545 0.33792,2.94097 -0.17567,6.0167 -0.12385,8.9775 -0.145,7.03821 0.18611,14.05091 0.57793,21.06456 -0.24069,2.96021 -0.81127,5.94785 -1.75719,8.77358 -0.16675,0.49812 -0.59005,0.89299 -0.71929,1.40214 -0.0404,0.15903 0.41806,0.38974 0.25678,0.41995 -1.17827,0.22075 -2.39365,0.13641 -3.59048,0.20461 -6.54697,0.74635 -11.9084,2.17185 -17.27905,-2.58595 -2.44585,-1.41198 -2.07689,-2.92798 -2.07689,-5.77848 0,-2.82651 0,-5.65303 0,-8.47954 0,-9.7076 0,-19.4152 0,-29.1228 0,0 -6.87994,0 -6.87994,0 z" />
    <path
       style="opacity:0.794344;fill:#ff7000;fill-opacity:1;filter:url(#filter1308)"
       id="path923"
       d="m 441.51223,226.05879 c 0.18815,6.34612 -0.26373,12.71981 -0.01,19.06296 0.0785,1.96069 0.34528,3.90931 0.51224,5.86445 0.58086,6.80185 0.39756,4.23276 0.72865,10.21347 -0.17243,5.97372 -0.33423,11.93663 -0.27178,17.91686 0.0781,4.30837 0.026,8.61709 0.0173,12.92562 0.003,0.54772 0.008,1.09543 0.01,1.64316 0.003,1.05096 -0.21408,2.12437 0.002,3.1529 0.80499,3.83279 3.99494,7.8204 3.71598,11.7916 -0.39211,0.55072 -0.1914,0.22517 -0.56096,1.00089 0,0 3.56705,1.65435 3.56705,1.65435 v 0 c 0.6802,-1.49393 0.33908,-0.6213 0.92592,-2.65392 -0.1156,-3.46429 -1.01266,-5.46765 -2.35371,-8.69385 -0.43341,-1.04267 -1.12155,-1.99828 -1.36228,-3.10149 -0.0236,-0.10797 0.003,-3.96247 0.008,-4.78571 0.009,-4.32169 0.0398,-8.64354 -0.0368,-12.96488 -0.0331,-6.04312 0.0956,-12.06888 0.28525,-18.10471 -0.36123,-6.48005 -0.11982,-2.98524 -0.75677,-10.33492 -0.15958,-1.84125 -0.40427,-3.67714 -0.47805,-5.52382 -0.2535,-6.34516 0.17496,-12.71536 -0.01,-19.06296 0,0 -3.93201,0 -3.93201,0 z" />
    <path
       style="opacity:0.794344;fill:#ff7000;fill-opacity:1;filter:url(#filter1308)"
       id="path925"
       d="m 441.02263,335.23506 c 0.1656,1.47629 0.32431,2.95337 0.4968,4.42887 0.21098,1.80475 0.33016,6.86388 4.18209,-0.96036 0.70042,-1.42275 -0.0795,-3.17065 -0.12447,-4.75582 -0.19945,-7.02687 -0.0793,-1.72884 -0.19513,-7.29232 0.068,0.0889 0.2916,0.19717 0.20392,0.26672 -4.10728,3.25803 -3.18817,0.21866 -2.84082,5.8204 0,0 3.94213,-0.27083 3.94213,-0.27083 v 0 c -0.10696,-1.43327 0.40459,-3.0591 -0.3209,-4.29981 -3.62498,-6.19934 -3.84422,-3.9902 -4.91549,-1.43458 0.0914,4.38297 0.0375,2.05757 0.17623,7.31436 0.0409,1.55063 -0.64287,3.30302 0.1231,4.65188 0.76438,1.34605 2.39405,2.26118 3.92653,2.47943 2.13831,0.30452 -6.03445,-9.89583 -0.73307,-6.43805 0,0 -3.92092,0.49011 -3.92092,0.49011 z" />
    <path
       sodipodi:type="star"
       style="opacity:0.794344;fill:#ffbce2;fill-opacity:1;filter:url(#filter1308)"
       id="path947"
       sodipodi:sides="5"
       sodipodi:cx="1771.4486"
       sodipodi:cy="131.98181"
       sodipodi:r1="81.420357"
       sodipodi:r2="17.419323"
       sodipodi:arg1="0.71654167"
       sodipodi:arg2="1.0422299"
       inkscape:flatsided="true"
       inkscape:rounded="0"
       inkscape:randomized="0"
       inkscape:transform-center-x="5.6363741"
       inkscape:transform-center-y="-2.2168401"
       d="m 1832.8462,185.45713 -93.2827,21.44205 -49.2186,-82.09121 62.864,-72.177203 88.0707,37.483247 z" />
    <path
       sodipodi:type="star"
       style="opacity:0.794344;fill:#bc00ec;fill-opacity:1;filter:url(#filter1308)"
       id="path949"
       sodipodi:sides="5"
       sodipodi:cx="234.52837"
       sodipodi:cy="1072.7513"
       sodipodi:r1="99.522278"
       sodipodi:r2="70.900848"
       sodipodi:arg1="0.54383244"
       sodipodi:arg2="1.1070454"
       inkscape:flatsided="false"
       inkscape:rounded="0"
       inkscape:randomized="0"
       inkscape:transform-center-x="3.1646418"
       inkscape:transform-center-y="-6.5841758"
       d="m 319.69276,1124.2461 -53.45002,11.9176 -54.37155,33.4966 -27.85129,-47.1513 -48.65883,-41.3594 36.23697,-41.0587 24.29874,-59.05806 50.24697,21.77556 63.67628,4.8595 -5.18264,54.5168 z" />
    <path
       sodipodi:type="star"
       style="opacity:0.794344;fill:#ff6b00;fill-opacity:1;filter:url(#filter1308)"
       id="path951"
       sodipodi:sides="5"
       sodipodi:cx="1779.371"
       sodipodi:cy="1076.7125"
       sodipodi:r1="102.93236"
       sodipodi:r2="44.351574"
       sodipodi:arg1="1.046877"
       sodipodi:arg2="-0.22250737"
       inkscape:flatsided="false"
       inkscape:rounded="0"
       inkscape:randomized="0"
       inkscape:transform-center-x="-3.3146846"
       inkscape:transform-center-y="-6.6231973"
       d="m 1830.8657,1165.8381 -8.2365,-98.9129 -112.1089,86.303 91.5265,-38.3991 -116.7226,-79.9528 64.803,75.1809 39.9703,-135.7166 -51.476,84.8635 141.4256,-3.9247 -96.6169,-22.7323 z" />
    <path
       sodipodi:type="spiral"
       style="opacity:0.870968;fill:#35c0e4;fill-opacity:1;fill-rule:evenodd;stroke:#0a0a0a;filter:url(#filter1308)"
       id="path953"
       sodipodi:cx="139.46112"
       sodipodi:cy="108.215"
       sodipodi:expansion="1"
       sodipodi:revolution="3"
       sodipodi:radius="69.178246"
       sodipodi:argument="-17.69117"
       sodipodi:t0="0"
       d="m 139.46112,108.215 c 1.39023,3.17768 -3.59756,3.44176 -5.28151,2.31066 -4.56342,-3.06522 -2.86195,-9.78092 0.66019,-12.873691 6.30028,-5.532236 15.9312,-2.700525 20.46586,3.631051 6.6548,9.29183 2.56821,22.17716 -6.6019,28.05803 -12.22231,7.83828 -28.45869,2.45033 -35.65021,-9.57275 -9.04979,-15.12982 -2.34032,-34.757572 12.54361,-43.242386 18.02643,-10.276248 41.06629,-2.234962 50.83456,15.51446 11.51156,20.917076 2.13252,47.381166 -18.48532,58.426736 -23.8041,12.75254 -53.70015,2.03203 -66.018903,-21.45617 -13.997354,-26.68879 -1.93291,-60.022012 24.427023,-73.611081 29.57185,-15.244882 66.34597,-1.834769 81.20325,27.397873 16.4944,32.453778 1.73736,72.671508 -30.36872,88.795428" />
    <text
       xml:space="preserve"
       id="text955"
       style="font-style:normal;font-weight:normal;font-size:40px;line-height:1.25;font-family:sans-serif;white-space:pre;shape-inside:url(#rect957);opacity:0.870968;fill:#00bd00;fill-opacity:1;stroke:none;filter:url(#filter1308);"
       transform="matrix(2.335893,0.65451475,-0.95052813,3.2273274,937.73867,-1895.9178)"><tspan
         x="362.44336"
         y="612.83892"><tspan
           style="font-style:normal;font-variant:normal;font-weight:normal;font-stretch:normal;font-family:'Snap ITC';-inkscape-font-specification:'Snap ITC';fill:#00bd00">ENGLISH</tspan></tspan></text>
    <text
       xml:space="preserve"
       id="text961"
       style="font-style:normal;font-variant:normal;font-weight:normal;font-stretch:normal;font-size:40px;line-height:1.25;font-family:'Vladimir Script';-inkscape-font-specification:'Vladimir Script';white-space:pre;shape-inside:url(#rect963);opacity:0.870968;fill:#00bd00;fill-opacity:1;stroke:none;filter:url(#filter1308);"
       transform="matrix(2.2502889,-0.26526644,0.58979735,3.6529299,-1357.1057,-1521.6662)"><tspan
         x="544.65625"
         y="705.14597"><tspan
           style="font-style:normal;font-variant:normal;font-weight:normal;font-stretch:normal;font-family:'Vladimir Script';-inkscape-font-specification:'Vladimir Script';fill:#00bd00;fill-opacity:1">DEUTSCH</tspan></tspan></text>
    <ellipse
       style="opacity:0.794344;fill:#f6fdf1;fill-opacity:1;stroke-width:1.11473;filter:url(#filter1308)"
       id="path1009"
       cx="1067.2573"
       cy="977.83282"
       rx="277.43936"
       ry="96.267418"
       transform="matrix(0.9947028,0.10279268,-0.06686046,0.99776234,6.7630983,-0.71620469)" />
    <g
       id="g1007"
       transform="matrix(0.90311624,0,0,0.7777703,144.1188,231.43338)"
       style="opacity:0.870968;filter:url(#filter1308)">
      <path
         style="opacity:0.912024;fill:#00bd00;fill-opacity:1"
         id="path971"
         d="m 782.018,1032.311 c 1.11268,3.3805 1.69243,6.9522 1.47029,10.516 -0.0735,1.1795 -0.43114,2.329 -0.51424,3.5079 -0.0881,1.249 -0.0942,2.5025 -0.14138,3.7538 0.003,5.7429 0.17888,11.4797 0.14688,17.2229 -0.0432,4.1157 -0.0168,8.2318 -0.0144,12.3476 7.4e-4,6.8361 -0.003,13.6722 -0.002,20.5082 6.6e-4,5.8403 3e-4,11.6806 2.2e-4,17.5209 10e-6,3.1865 5e-5,6.3729 4e-5,9.5594 0.86773,-0.1214 2.16441,0.3941 2.6032,-0.3643 0.69026,-1.193 -0.0344,-2.7571 0,-4.135 0.0211,-0.8453 0.61015,-17.3636 0.69923,-18.7414 0.30158,-4.6645 -0.6613,-3.6795 1.26879,-5.0882 -0.0827,0.1619 -0.41968,0.5457 -0.24802,0.4858 3.08789,-1.0782 2.86855,-3.7689 3.95258,-6.3201 0.22785,-0.5363 0.43612,-1.1541 0.91077,-1.492 0.60951,-0.4339 1.42618,-0.453 2.13928,-0.6795 0.79278,-0.2052 1.60682,-0.3411 2.37834,-0.6157 0.94528,-0.3364 1.75551,-1.0154 2.72197,-1.285 2.09684,-0.5849 4.3423,-0.4643 6.49217,-0.4423 2.04323,0.449 3.53046,-0.6441 5.11036,-1.7455 0.33074,-0.2305 0.61588,-0.549 0.99387,-0.6892 0.32196,-0.1195 1.40045,0.1192 1.68729,0.1703 1.08494,0.1197 3.21699,0.3726 4.34769,0.4325 0.78802,0.042 1.60029,-0.1326 2.36674,0.055 0.84201,0.2064 1.81395,1.1416 2.20567,1.9105 0.17323,0.3401 0.1963,0.7377 0.29444,1.1065 0.13725,0.6316 1.22232,5.6605 1.3438,6.0613 1.37132,4.5247 1.02764,1.4046 1.85165,5.7906 0.29487,1.5695 0.10198,2.3315 -0.0324,3.9876 -0.11963,2.1233 -0.50629,4.2326 -0.51027,6.3637 -0.002,1.0919 0.12084,2.1937 0.1611,3.285 0.95099,4.6327 0.94563,9.3459 0.67285,14.0406 0,0 2.59884,0.1508 2.59884,0.1508 v 0 c 0.27644,-4.7737 0.30661,-9.5799 -0.6703,-14.2888 -0.0389,-1.0256 -0.15959,-2.0666 -0.16101,-3.0928 -0.003,-2.0996 0.40106,-4.1769 0.50512,-6.2694 0.13752,-2.0882 0.34358,-2.8482 -0.0391,-4.8107 -1.057,-5.4213 -0.36432,-0.8683 -1.83705,-5.7293 -0.0206,-0.068 -1.3975,-6.2135 -1.43065,-6.3613 -0.68592,-1.6872 -0.72985,-2.4829 -2.35729,-3.5906 -2.25544,-1.5351 -2.3568,-1.0777 -4.73603,-1.2022 -1.10212,-0.058 -3.20294,-0.3068 -4.25448,-0.4228 -1.54207,-0.144 -1.90213,-0.3372 -3.49064,0.2745 -0.39323,0.1514 -0.69817,0.4724 -1.03845,0.7209 -1.49243,1.0901 -1.56411,1.5887 -3.55917,1.2495 -2.55976,-0.019 -5.09898,-0.054 -7.58368,0.6718 -1.1095,0.3242 -1.15589,0.7315 -2.32192,1.1428 -0.90041,0.3176 -1.84267,0.501 -2.76401,0.7515 -1.11044,0.5815 -2.37209,0.9375 -3.33132,1.7444 -0.94527,0.7952 -1.56754,3.3694 -1.89125,4.3968 -0.17347,0.5505 -0.35672,1.098 -0.52331,1.6507 -0.0474,0.1571 0.0302,0.408 -0.11834,0.4778 -0.56553,0.2659 -1.2157,0.2901 -1.82355,0.4351 -0.44994,0.6453 -1.13607,1.1789 -1.34983,1.936 -0.65223,2.3101 -0.8663,13.1816 -0.88276,13.6238 -0.12342,3.3167 -0.26826,6.6328 -0.35093,9.9508 -0.0343,1.3779 -0.69026,2.942 0,4.135 0.4388,0.7584 1.73548,0.2429 2.60321,0.3643 10e-6,-3.1864 -2e-5,-6.3729 -3e-5,-9.5594 7e-5,-5.8404 4.3e-4,-11.6807 -2.3e-4,-17.5211 -6.7e-4,-6.8365 0.003,-13.673 0.002,-20.5095 -0.002,-4.1105 -0.0288,-8.2212 0.0143,-12.3316 0.0318,-5.7167 -0.13919,-11.427 -0.14853,-17.1434 0.0404,-1.1704 0.0406,-2.3428 0.12121,-3.5111 0.0891,-1.2909 0.46397,-2.5527 0.53611,-3.8446 0.21867,-3.9163 -0.43346,-7.8354 -1.68078,-11.5415 0,0 -2.39272,1.0255 -2.39272,1.0255 z" />
      <path
         style="opacity:0.912024;fill:#00bd00;fill-opacity:1"
         id="path977"
         d="m 880.74838,1088.8601 c -1.05971,-1.9421 -1.88621,-3.9973 -2.87475,-5.9736 -0.33863,-0.677 -0.57656,-1.4343 -1.0854,-1.9947 -0.51664,-0.569 -1.31414,-0.8075 -1.90502,-1.299 -0.64473,-0.5363 -2.86466,-3.1873 -3.15379,-3.5233 -0.52232,-0.5093 -0.90127,-1.2295 -1.56698,-1.528 -3.89928,-1.7481 -7.79616,0.457 -11.70437,0.7028 -1.88917,-0.5991 -3.06014,1.6134 -3.59993,2.9934 -0.27545,0.7042 -0.35789,1.4751 -0.64273,2.1756 -0.4282,1.053 -0.99296,2.0452 -1.48944,3.0678 -0.009,1.654 -1.50588,2.5277 -2.07381,3.8796 -0.42657,1.0154 -0.75066,2.0731 -1.04887,3.1333 -0.33928,1.2063 -0.41098,2.49 -0.8616,3.6592 -0.39485,1.0245 -1.10666,1.8968 -1.64782,2.8522 -0.46267,0.8168 -0.90903,1.6428 -1.36354,2.4642 -0.19322,0.6068 -0.5069,1.1878 -0.57964,1.8205 -0.18458,1.6054 0.28892,1.5714 0.71949,2.9153 0.4765,1.4874 0.32348,3.11 0.28471,4.6328 -0.0931,3.1727 -0.13352,4.2891 -0.1962,7.4413 -0.0317,1.5959 -0.46997,3.2629 0.89064,4.4515 0.3632,0.3173 0.87025,0.416 1.30538,0.6239 3.24206,0.8251 5.78448,3.2294 9.14798,3.6656 2.05414,0.2663 3.36374,-0.011 5.33716,-0.2617 0.0821,-0.012 2.57722,-0.4081 3.05735,-0.4324 0.48208,-0.024 0.96754,0.056 1.44805,0.01 1.72085,-0.1639 3.57712,-0.7212 5.25483,-1.0724 4.93698,-3.6677 4.03972,-2.3116 7.62627,-9.1064 0.15265,-0.2892 2.88947,-6.313 2.92238,-8.0388 0.009,-0.4851 -0.62255,-1.691 -0.92555,-2.2969 -0.023,-0.1646 -0.0667,-0.3277 -0.0689,-0.4939 -0.0202,-1.5361 0.19693,-3.0992 0.25055,-4.6325 0.0715,-2.0451 0.0458,-3.0797 0.0435,-5.2701 -0.0559,-3.75 -0.0661,-7.4999 -0.049,-11.2501 9.6e-4,-0.5112 0.002,-1.0224 0.003,-1.5336 5.6e-4,-0.5786 -4.5e-4,-1.7545 -0.002,-2.3442 -1.5e-4,-0.065 0.0539,-0.2292 -0.002,-0.1952 -0.89835,0.5511 -2.21046,0.8156 -2.60388,1.7933 -0.58205,1.4465 4e-5,3.1184 6e-5,4.6776 -0.41499,5.3526 0.6989,10.6214 0.8787,15.9513 0.054,1.6007 -0.0163,2.5085 -0.0888,4.0671 -0.20443,4.1205 -0.14547,8.2513 -0.11073,12.3755 0.006,0.725 -0.12953,1.466 0.0219,2.175 0.14839,0.6947 0.57283,1.3002 0.85925,1.9502 1.4867,1.223 3.20247,2.0801 4.80371,3.1367 0,0 1.43054,-2.1749 1.43054,-2.1749 v 0 c -1.2,-0.787 -2.49259,-1.8851 -3.92733,-2.1679 -0.98772,-1.3511 -0.56403,-0.4579 -0.58496,-2.9379 -0.0344,-4.0782 -0.0942,-8.1631 0.10807,-12.2377 0.0769,-1.7059 0.14689,-2.5845 0.0867,-4.3453 -0.18052,-5.2777 -1.28294,-10.492 -0.87383,-15.7921 -10e-6,-1.5589 0.58329,-3.231 -5e-5,-4.6766 -0.39279,-0.9733 -1.70773,-1.2239 -2.60245,-1.7727 -0.0504,-0.031 10e-4,0.1182 0.002,0.1774 10e-4,0.5921 0.002,1.7539 0.002,2.3355 -4.9e-4,0.5089 -0.002,1.0178 -0.003,1.5267 -0.0171,3.7551 -0.007,7.51 0.0489,11.2649 0.003,2.1286 0.028,3.1575 -0.0406,5.1439 -0.0599,1.7349 -0.3776,3.5962 -0.18876,5.3326 0.0416,0.3828 0.198,0.7443 0.29699,1.1164 0.16022,0.301 0.19239,0.7209 0.48066,0.9031 0.14332,0.091 0.26467,-0.6184 0.23357,-0.4518 -0.82076,4.3982 -3.37009,9.5378 -6.00206,13.0457 -0.67472,0.8992 -1.70556,1.4651 -2.55833,2.1977 -1.02807,0.2153 -3.57558,0.9132 -4.72161,1.0172 -1.61491,0.1466 -3.25528,-0.036 -4.84543,0.445 -1.53771,0.2113 -2.79737,0.4672 -4.37655,0.3143 -3.19243,-0.3092 -5.58723,-2.8386 -8.69177,-3.5075 -0.27929,-0.1166 -0.57687,-0.5028 -0.83788,-0.3496 -0.22062,0.1294 0.004,0.9612 0.15157,0.7523 0.18242,-0.2583 -0.0147,-0.6323 -0.013,-0.9484 0.004,-0.6997 0.0154,-1.3994 0.0293,-2.099 0.0625,-3.1454 0.10323,-4.2725 0.19627,-7.4446 0.0271,-1.4313 0.14521,-2.6553 -0.0986,-4.0453 -0.10346,-0.59 -0.24516,-1.175 -0.42946,-1.745 -0.0765,-0.2366 -0.22807,-0.4421 -0.34816,-0.6598 -0.0755,-0.1368 -0.2498,-0.2478 -0.23829,-0.4036 0.0335,-0.4527 0.24338,-0.8746 0.36507,-1.3118 0.4444,-0.8032 3.14468,-5.6652 3.2682,-5.983 0.42866,-1.1028 0.50433,-2.3128 0.80556,-3.457 0.22565,-0.8572 0.42984,-1.7271 0.7742,-2.5438 0.60837,-1.4428 2.08235,-2.4435 2.21789,-4.141 0.5484,-1.1597 1.1626,-2.2905 1.6452,-3.4791 0.22413,-0.552 0.26305,-1.1655 0.46781,-1.725 0.17465,-0.4772 0.52962,-0.882 0.66549,-1.3717 0.0249,-0.09 -0.22265,-0.035 -0.25052,-0.124 -0.0236,-0.075 0.077,-0.1735 0.15573,-0.1784 0.30018,-0.019 0.59676,0.075 0.89513,0.1132 1.90634,-0.1598 3.71225,-0.6483 5.59142,-1.0123 0.53243,-0.1032 3.39563,-0.7055 4.10519,-0.4184 0.60521,0.2449 0.93935,0.907 1.40902,1.3605 0.95143,1.1002 2.61775,3.1682 3.84857,4.0917 0.25,0.1876 0.68737,0.044 0.89593,0.2766 0.47069,0.5254 0.69996,1.2257 1.01531,1.8566 0.49477,0.9899 0.94267,2.0026 1.414,3.0039 0.43771,0.8588 0.87543,1.7176 1.31314,2.5764 0,0 2.50304,-0.7151 2.50304,-0.7151 z" />
      <path
         style="opacity:0.912024;fill:#00bd00;fill-opacity:1"
         id="path979"
         d="m 899.20235,1088.8675 c 0,8.9572 0,17.9144 0,26.8716 0,3.4866 0,6.9732 0,10.4598 0,0.372 0,0.744 0,1.116 0,0.3136 -0.29931,0.8472 0,0.9409 0.89229,0.2794 1.86957,-0.042 2.80435,-0.063 0.26243,-0.7988 0.58465,-1.5803 0.78728,-2.3962 0.36437,-1.4672 0.60845,-2.9616 0.91113,-4.4428 0.39653,-1.9403 1.74349,-8.2521 2.02027,-10.6096 0.25569,-5.0637 0.0323,-2.551 0.66529,-7.5388 0.18888,-1.9223 0.65486,-3.8245 0.51227,-5.7652 -0.0785,-1.0682 -0.2313,-2.0653 -0.25641,-3.1417 0.004,-0.6599 -0.0853,-1.3269 0.0114,-1.9796 0.20372,-1.3751 1.0075,-3.7568 1.40058,-5.1403 0.72334,-2.5459 1.29854,-5.1149 2.09481,-7.6397 0.52422,-0.9505 2.47293,-3.7678 3.8492,-3.8659 0.2234,-0.016 0.43617,0.1027 0.65646,0.1432 0.3508,0.064 0.70413,0.1141 1.0562,0.1712 1.58481,0.1389 2.34716,0.2343 3.89784,0.2681 0.61933,0.014 1.3192,-0.3094 1.85844,0 0.79481,0.4495 1.26958,1.3226 1.79412,2.07 2.14859,3.0614 1.84943,3.0543 2.88894,6.5334 0.3777,2.5984 1.42409,4.8804 2.86159,7.0547 0.70675,1.069 1.6567,1.9721 2.30142,3.0796 0.22029,0.3785 0.33509,0.8092 0.50263,1.2137 0.92221,2.2027 1.51994,3.9194 2.88071,5.9304 0.42587,0.6294 1.10118,1.0632 1.52768,1.6922 0.50538,0.7453 0.40555,2.3543 0.35627,3.1927 0.456,2.2949 1.25592,4.5342 1.4133,6.8844 0.21028,3.1401 -0.1765,1.0952 -0.13276,4.302 0.0155,1.1349 0.13941,2.2656 0.20911,3.3984 0.11319,1.15 0.14219,3.4965 0.86527,4.6657 0.29806,0.482 0.83506,0.7663 1.2526,1.1494 0,0 1.42661,-2.1775 1.42661,-2.1775 v 0 c -0.0718,0.063 -0.16399,0.2678 -0.21542,0.1876 -0.67514,-1.052 -0.63343,-3.0043 -0.73125,-3.9926 -0.0694,-1.0256 -0.19488,-2.049 -0.20828,-3.0769 -0.0103,-0.7886 0.11901,-1.5736 0.13736,-2.3621 0.0708,-3.0402 -0.45615,-5.9979 -1.41509,-8.8827 0.0282,-1.3053 0.14959,-1.9882 -0.2554,-3.2639 -0.98789,-3.1117 -0.36958,-0.6581 -1.95199,-2.9766 -1.31719,-1.9299 -1.8835,-3.5879 -2.77864,-5.7249 -0.26462,-0.571 -0.47689,-1.1692 -0.79388,-1.7128 -0.60554,-1.0384 -1.48903,-1.8898 -2.16795,-2.8818 -1.35722,-1.9831 -2.25415,-4.0786 -2.59831,-6.4727 -0.42384,-1.3167 -0.681,-2.6993 -1.27153,-3.9501 -1.36588,-2.8932 -3.00639,-4.9812 -5.90569,-6.4828 -0.27161,-0.1406 -5.10013,0.1688 -5.35792,-0.2342 -1.25195,-0.1795 -1.86827,-0.3602 -3.19327,-0.1042 -0.31766,0.061 -0.59802,0.2529 -0.87488,0.4203 -1.99206,1.2045 -3.31572,2.9661 -4.36702,5.029 -0.7945,2.5383 -1.37971,5.1158 -2.10524,7.6737 -0.5905,2.0818 -1.19579,3.6695 -1.50978,5.8724 -0.0972,0.6817 -0.007,1.3773 -0.0105,2.0659 0.0157,0.4998 0.0157,1.0004 0.0472,1.4994 0.0526,0.8334 0.29689,1.665 0.26001,2.5049 -0.0664,1.5112 -0.48291,2.9978 -0.54373,4.5054 -0.16337,1.3085 -0.32674,2.617 -0.49011,3.9255 -0.0525,1.1651 -0.022,2.3368 -0.15755,3.4951 -0.27678,2.3652 -1.61423,8.6023 -2.00609,10.5342 -0.28172,1.3889 -0.51358,2.7887 -0.83946,4.168 -0.15889,0.6725 -0.40879,1.3202 -0.61319,1.9803 0.70137,0.424 1.29449,1.1446 2.10411,1.272 0.30984,0.049 0,-0.6273 0,-0.9409 0,-0.372 0,-0.744 0,-1.116 0,-3.4866 0,-6.9732 0,-10.4598 0,-8.9572 0,-17.9144 0,-26.8716 0,0 -2.6032,0 -2.6032,0 z" />
      <path
         style="opacity:0.912024;fill:#00bd00;fill-opacity:1"
         id="path981"
         d="m 958.72244,1035.9997 c 0,1.984 0.17194,3.9755 0,5.952 -0.17323,1.9913 -0.68001,3.9395 -1.03164,5.9071 -3.38569,18.9456 0.48185,-3.0766 -2.62558,14.7908 -1.07486,6.1803 -0.72809,3.2369 -1.15253,8.299 0.0577,0.9963 0.0822,1.995 0.17322,2.9888 0.37596,4.104 0.30685,0.5779 0.52721,4.8857 0.14724,2.8783 0.0267,5.7659 -0.0587,8.6437 -0.12936,4.7062 -0.0309,9.4141 -0.0238,14.1211 -0.009,5.6546 -0.0149,11.3091 -0.0101,16.9636 0.002,4.2845 5e-4,8.569 3.6e-4,12.8536 2e-5,0.3561 -0.27475,0.8418 4e-5,1.0684 3.3243,2.7403 3.27134,-0.4222 4.30174,-3.4937 0.57563,-1.7159 0.93877,-3.496 1.40816,-5.2439 0,0 -2.51417,-0.675 -2.51417,-0.675 v 0 c -0.18572,0.6919 -3.19016,8.3981 -0.59252,9.4125 0.33168,0.1295 -3e-5,-0.7122 -4e-5,-1.0683 1.4e-4,-4.2852 0.002,-8.5705 -3.7e-4,-12.8558 -0.005,-5.6551 8.9e-4,-11.3102 0.0101,-16.9653 -0.007,-4.68 -0.10495,-9.3609 0.0227,-14.0401 0.0879,-2.9767 0.20729,-5.9619 0.0507,-8.9388 -0.21709,-4.1272 -0.16162,-1.1893 -0.52314,-4.8301 -0.0863,-0.8687 -0.11793,-1.7421 -0.17689,-2.6131 0.3876,-4.8204 0.0617,-1.9651 1.12324,-8.069 1.90804,-10.9714 0.53373,-3.2852 2.62619,-14.7942 0.37142,-2.1131 0.88327,-4.2096 1.06906,-6.347 0.17181,-1.9766 0,-3.968 0,-5.952 0,0 -2.6032,0 -2.6032,0 z" />
      <path
         style="opacity:0.912024;fill:#00bd00;fill-opacity:1"
         id="path983"
         d="m 975.57819,1075.5556 c -1.07304,5.8209 -5.13108,9.5801 -8.66897,13.9578 -1.67449,2.072 -3.27255,4.2047 -4.9287,6.2913 -0.94873,0.6115 -1.08911,2.0604 -1.9832,2.753 -0.37017,0.2868 -3.15794,1.2288 -3.17848,1.2355 -0.33706,0.1093 -1.28694,0.026 -1.02851,0.2689 1.09593,1.0282 2.55821,1.5775 3.83731,2.3663 4.54264,-0.026 9.11272,-0.6721 13.65954,-0.4648 0.75156,0.034 1.5818,-0.028 2.22875,0.3561 0.41836,0.2483 0.46626,0.8616 0.60721,1.3272 0.28757,0.95 0.4484,1.9339 0.6726,2.9008 0.70753,2.4281 1.01928,4.9514 1.6684,7.3928 0.1942,0.7305 0.25878,1.5574 0.73357,2.1455 1.09242,1.3531 2.40855,1.3764 3.52754,2.5025 0.24606,0.2476 0.36238,0.5967 0.54357,0.8951 -0.10526,2.6981 -0.0519,0.347 0.0393,3.9986 0.0151,0.6061 -0.0457,1.2152 0.0111,1.8187 0.13134,1.3955 0.56496,2.7649 0.78417,4.1489 -0.0242,0.4613 0.008,0.2508 -0.0799,0.6342 0,0 2.56798,0.4268 2.56798,0.4268 v 0 c 0.13285,-0.9395 0.0994,-0.4484 0.0821,-1.4744 -0.20254,-1.2431 -0.63669,-2.5033 -0.75119,-3.7524 -0.2223,-2.4253 0.19678,-4.9189 -0.52902,-7.3047 -0.96318,-1.2548 -1.18385,-1.8561 -2.65377,-2.5591 -0.33015,-0.1579 -0.84502,0.093 -1.082,-0.186 -0.42406,-0.499 -0.48354,-1.2205 -0.65118,-1.8535 -0.65708,-2.4813 -0.977,-5.0443 -1.69738,-7.5111 -0.78556,-2.6316 -0.74151,-4.6798 -3.40302,-6.1237 -0.78806,-0.4276 -1.76637,-0.3437 -2.66197,-0.3852 -4.55224,-0.211 -9.12888,0.4396 -13.67703,0.4652 -1.06961,0.8435 -2.29753,1.518 -3.20882,2.5304 -0.2707,0.3008 0.79074,-0.1735 1.18162,-0.2781 2.47227,-0.6617 3.8039,-0.8698 5.34874,-3.0166 0.38764,-0.5387 0.754,-1.0924 1.13101,-1.6386 1.63839,-2.0644 3.21784,-4.1756 4.8746,-6.2254 3.81095,-4.7149 7.97122,-8.6662 9.18706,-14.9269 0,0 -2.50305,-0.7151 -2.50305,-0.7151 z" />
      <path
         style="opacity:0.912024;fill:#00bd00;fill-opacity:1"
         id="path987"
         d="m 1052.214,1089.029 c 0.3979,6.2855 0.7047,12.5717 1.9308,18.7678 0.5033,2.5437 1.3463,5.2716 2.2009,7.7554 0.572,0.7331 1.0639,1.5366 1.7161,2.1994 0.6569,0.6675 1.5282,1.0985 2.1856,1.7654 2.7369,2.7766 4.8814,6.3686 7.5922,9.2173 0.4789,0.5034 1.0617,0.8966 1.5926,1.3449 1.9952,-0.997 4.1886,-1.6698 5.9858,-2.9909 2.1215,-1.5595 3.8167,-3.6319 5.6262,-5.5447 5.4211,-5.7302 2.5685,-2.7612 5.7082,-7.3887 1.0943,-1.6129 2.3912,-3.09 3.3966,-4.7598 1.4006,-2.3261 2.5371,-4.8013 3.8056,-7.202 1.7819,-5.3524 3.4337,-8.7283 3.6595,-14.2116 0.039,-0.9377 0.073,-2.0454 -0.5293,-2.7652 -1.593,-1.9043 -3.1232,-0.6962 -3.9457,0.7203 -0.3026,0.521 -0.2784,1.1725 -0.4175,1.7588 0.147,4.2698 0.7285,8.5244 0.5624,12.8061 -0.055,1.4162 -0.2661,2.8221 -0.3773,4.235 -0.1511,1.921 -0.2732,3.8441 -0.4098,5.7662 -0.1893,2.941 -0.335,5.8852 -0.5678,8.8231 -0.1931,2.4372 -0.4248,4.872 -0.7098,7.3002 -0.5289,4.5045 -1.5666,8.6062 -1.0548,13.1454 -1.9452,13.1479 -3.749,26.3221 -4.8918,39.5661 -1.075,3.1885 -1.4547,5.143 -3.3857,7.8868 -0.9566,1.3595 -2.2699,2.3432 -3.5762,3.3155 -1.613,1.2005 -0.991,0.8749 -2.335,1.4101 -3.1982,-0.7664 -6.9649,-0.058 -9.871,-1.8954 -4.2198,-2.6682 -4.9603,-4.8488 -7.7077,-9.0144 -2.503,-7.9398 -2.4163,-5.9056 -2.7041,-14.9461 -0.087,-2.7336 0.2579,-5.4743 0.094,-8.2044 -0.2375,-3.9658 -1.0189,-7.8914 -2.6322,-11.5165 -0.7238,0.5233 -1.4475,1.0466 -2.1713,1.5699 0,0 2.4125,-0.9781 2.4125,-0.9781 v 0 c -0.8704,0.1617 -1.7408,0.3233 -2.6112,0.485 1.4927,3.199 2.1931,6.9317 2.3991,10.4114 0.1663,2.8076 -0.192,5.6265 -0.086,8.437 0.3645,9.705 0.2996,7.6049 3.1374,16.1922 3.3587,4.93 3.9105,6.9592 9.0628,10.0391 2.2658,1.3544 4.3118,1.2158 6.7405,1.4957 3.9012,0.4495 0.7998,0.3453 4.9783,0.3105 2.7149,-1.2503 5.4648,-3.409 7.1632,-5.8792 2.1586,-3.1394 2.5126,-5.244 3.6862,-8.8954 1.157,-13.4216 3.0708,-26.7538 4.883,-40.099 -0.5433,-4.2341 0.5699,-8.3942 1.061,-12.5845 0.2878,-2.4564 0.5212,-4.9193 0.7166,-7.3847 0.2324,-2.9322 0.3778,-5.8706 0.5667,-8.8058 0.1354,-1.9079 0.2583,-3.8167 0.4064,-5.7237 0.1164,-1.499 0.33,-2.9915 0.387,-4.494 0.1563,-4.1222 -0.3141,-8.2387 -0.5982,-12.3428 -7e-4,-0.603 -0.4979,-3.8389 -0.7446,-2.343 -0.1022,0.6199 0.5192,1.1909 0.4944,1.8186 -0.2072,5.2423 -1.6843,8.1907 -3.3874,13.3779 -5.6985,10.8618 -1.231,3.1022 -7.1211,11.8189 -0.5224,0.7731 -0.8731,1.6598 -1.443,2.3987 -3.3945,4.4013 -5.1083,5.5784 -9.1515,9.7506 -0.9801,1.0114 -1.8958,2.0835 -2.8437,3.1253 -0.421,-0.3395 -0.8909,-0.6261 -1.2631,-1.0185 -2.8591,-3.0142 -5.0456,-6.6187 -7.9662,-9.5797 -0.5311,-0.5385 -1.2369,-0.8772 -1.797,-1.3856 -0.4629,-0.4202 -0.8399,-0.9262 -1.2599,-1.3893 -0.7892,-2.2646 -1.6355,-5.0254 -2.088,-7.2997 -1.2278,-6.1711 -1.5114,-12.4348 -1.9206,-18.6948 0,0 -2.5831,0.3229 -2.5831,0.3229 z" />
      <path
         style="opacity:0.912024;fill:#00bd00;fill-opacity:1"
         id="path989"
         d="m 1112.7744,1104.2727 c 0,6.3313 0,12.6626 0,18.9939 0.7039,2.0622 0.6482,3.1392 2.9551,4.2237 1.531,0.7197 4.8515,0.8155 6.5265,0.819 1.8758,0 6.1644,-0.1946 8.0672,-0.2738 1.1049,-0.036 2.2095,-0.084 3.3147,-0.109 2.2651,-0.051 3.2633,0.3899 5.1534,-1.2205 1.6985,-1.4472 2.9749,-3.8956 3.6363,-5.9746 0.3873,-1.2172 0.5274,-2.4996 0.7911,-3.7494 0.1457,-0.926 0.209,-1.8688 0.4371,-2.7781 0.1538,-0.6131 0.532,-1.1527 0.7017,-1.7615 0.2716,-0.9741 0.3649,-1.991 0.6177,-2.9701 0.2335,-0.9043 0.617,-1.7662 0.8394,-2.6733 0.3752,-1.5296 0.891,-4.9464 1.1435,-6.5228 0.2448,-2.5268 0.3562,-5.0794 0.029,-7.6041 -0.033,-0.2508 -0.1095,-0.4941 -0.1478,-0.7441 -0.021,-0.1392 0.021,-0.2902 -0.031,-0.4212 -0.4615,-1.1762 -1.0002,-2.3206 -1.5004,-3.4809 -1.4845,-2.7185 -1.6951,-2.8888 -2.7274,-5.4189 -0.5427,-1.3299 -0.258,-1.7832 -1.9168,-2.3976 -0.5883,-0.2179 -1.27,0.032 -1.8781,-0.1223 -5.3894,-0.5105 -10.8174,-0.2696 -16.2223,-0.208 -1.6818,0.016 -3.3635,0 -5.0451,-0.013 -0.336,0 -0.698,-0.136 -1.008,-0.01 -0.6019,0.2514 -1.2273,0.5794 -1.6167,1.1027 -0.3627,0.4876 -0.3377,1.1676 -0.5066,1.7514 -0.063,0.6064 -0.1417,1.2113 -0.1882,1.8192 -0.051,0.6635 0.017,1.3391 -0.1036,1.9936 -0.1359,0.7391 -0.4409,1.4369 -0.6593,2.156 -0.6401,2.1081 -0.9961,3.3184 -0.9911,5.5058 0.5402,2.3491 0.3818,4.7135 0.3268,7.0953 0.7166,3.1819 0.438,6.8317 2.7532,9.4398 0.5654,0.6369 1.2841,1.119 1.9262,1.6784 0,0 1.663,-2.0027 1.663,-2.0027 v 0 c -0.4664,-0.361 -0.9942,-0.6542 -1.3991,-1.0829 -0.3576,-0.3786 -1.332,-2.0413 -1.4794,-2.5954 -0.1514,-0.5689 -0.1137,-1.1722 -0.1949,-1.7553 -0.271,-1.9445 -0.3033,-1.9676 -0.6665,-3.6223 0.055,-2.4123 0.2346,-4.8291 -0.3266,-7.2054 -0.1197,-2.6382 1.1753,-4.9244 1.6475,-7.4784 0.1129,-0.6108 0.047,-1.2416 0.093,-1.8609 0.042,-0.5638 0.1142,-1.1248 0.1713,-1.6872 -0.06,-0.1178 -0.1041,-0.2458 -0.1813,-0.3533 -0.08,-0.1111 -0.4118,-0.2443 -0.2849,-0.2952 0.311,-0.1247 0.6701,0 1.0051,0.01 1.6982,0.012 3.3963,0.029 5.0945,0.013 5.2599,-0.06 10.5404,-0.2906 15.7869,0.1764 0.3775,0.045 0.7524,0.145 1.1324,0.1346 0.2231,-0.01 0.042,-0.8551 0.1403,-0.655 0.239,0.4839 0.3423,1.0245 0.5478,1.5235 1.0767,2.6137 1.2561,2.7413 2.7368,5.4397 0.4264,0.8821 0.9128,1.7376 1.2791,2.6464 0.089,0.2213 0.039,0.4761 0.074,0.7121 0.374,2.4544 0.3905,4.9284 0.097,7.405 -0.1822,1.1395 -0.7755,5.008 -1.0585,6.1604 -0.2439,0.9933 -0.6522,1.941 -0.9056,2.932 -0.2153,0.8416 -0.2669,1.7207 -0.4984,2.5579 -0.2164,0.7824 -0.6411,1.4987 -0.841,2.2854 -0.2212,0.8706 -0.2775,1.7749 -0.4163,2.6624 -0.5989,3.0729 -1.005,5.5444 -3.1658,7.9816 -0.3188,0.3595 -0.6936,0.7477 -1.1626,0.8522 -1.9932,0.4442 -4.1432,-0.4878 -6.1246,0.1378 -3.5622,0.1486 -7.1212,0.3737 -10.686,0.1786 -1.274,-0.07 -2.5828,0.089 -3.5362,-0.9717 -0.3355,-0.3734 -0.41,-0.9165 -0.615,-1.3748 0,-6.3313 0,-12.6626 0,-18.9939 0,0 -2.6032,0 -2.6032,0 z" />
      <path
         style="opacity:0.912024;fill:#00bd00;fill-opacity:1"
         id="path991"
         d="m 1165.2922,1088.1673 c 0,6.2146 0,12.4292 0,18.6438 0,4.5369 0,9.0739 0,13.6108 0.421,0.5763 -0.2241,1.3418 0,1.953 0.2306,0.6292 0.4504,1.3032 0.9063,1.7943 2.4654,2.6558 6.4349,2.2421 9.6715,2.2631 3.8948,0.14 7.7905,0.1988 11.6877,0.1864 1.111,0 2.2236,-0.079 3.3331,-0.019 0.7704,0.041 1.5281,0.2133 2.2922,0.3199 3.8414,0.4532 7.7371,1.3683 11.3113,-0.6905 2.17,-1.25 2.4163,-2.1306 3.5434,-4.0373 0.02,-0.7074 0.1674,-1.4227 0.061,-2.1222 -0.171,-1.1206 -0.92,-2.0996 -1.0946,-3.2196 -0.3879,-2.4868 -0.1589,-5.076 -0.01,-7.571 0.1953,-2.208 0.1985,-4.4278 0.1762,-6.6425 -0.01,-0.8915 0.045,-1.7891 -0.066,-2.6738 -0.099,-0.7893 -0.254,-1.5704 -0.3811,-2.3555 -0.7621,-3.0383 -0.4631,-2.4605 -1.6527,-5.092 -0.1672,-0.37 -0.4398,-0.694 -0.56,-1.0819 -0.053,-0.1708 0.041,-0.3553 0.059,-0.5332 0.059,-0.5702 0.1669,-1.1377 0.1737,-1.7109 0.01,-0.5544 -0.089,-1.1054 -0.1339,-1.6581 -0.8517,-0.2957 -1.7035,-0.5914 -2.5552,-0.887 0,0 0.6768,2.5136 0.6768,2.5136 v 0 c -0.2378,-0.4609 -0.4756,-0.9219 -0.7133,-1.3829 0.3664,3.2523 -0.1131,-1.6835 -0.043,3.3371 0.035,2.4982 2.2524,4.3486 2.1803,6.9232 0.1157,0.6713 0.2601,1.3384 0.3471,2.014 0.1106,0.8581 0.056,1.7295 0.065,2.5946 0.022,2.1609 0.021,4.327 -0.1716,6.4814 -0.1649,2.8162 -0.3628,5.6765 0.116,8.4785 0.2118,1.2397 0.8137,2.1941 1.2471,3.3295 -0.2129,0.431 -0.345,0.9124 -0.6386,1.293 -1.9166,2.4838 -3.4441,2.7198 -6.3963,2.6211 -2.4515,-0.082 -2.7832,-0.1863 -5.1952,-0.5077 -0.8844,-0.1143 -1.7628,-0.2947 -2.6532,-0.343 -1.1048,-0.06 -2.2128,0.016 -3.3192,0.019 -3.8955,0.013 -7.7894,-0.048 -11.6827,-0.1864 -2.756,0.012 -5.0412,0.3825 -7.4843,-1.0657 -0.1802,-0.1068 -0.4061,-0.1983 -0.4941,-0.3885 -0.2736,-0.5907 0.5141,-1.4152 0,-1.953 0,-4.5369 0,-9.0739 0,-13.6108 0,-6.2146 0,-12.4292 0,-18.6438 0,0 -2.6032,0 -2.6032,0 z" />
      <path
         style="opacity:0.912024;fill:#00bd00;fill-opacity:1"
         id="path993"
         d="m 687.75024,1028.0608 c 2.32255,1.2098 4.78415,1.8702 7.4094,1.7129 0.65327,-0.039 1.29274,-0.2093 1.94367,-0.2769 2.3162,-0.2408 3.55614,-0.272 5.82184,-0.381 4.71581,0.08 9.50518,0.185 14.13358,1.2018 1.3003,0.2857 2.5463,0.7784 3.81946,1.1676 1.15857,0.2547 2.10961,1.1053 3.25044,1.4116 3.75182,1.0076 7.57362,0.9134 11.40541,0.6618 2.71279,-0.3208 5.44989,-0.1071 8.17425,-0.09 0.91349,0.3013 1.88846,-0.1723 2.81199,-0.012 0.13305,0.023 0.20799,0.1739 0.32337,0.244 0.62234,0.3785 1.08993,0.5267 1.88939,0.5989 0.74862,0.068 1.50325,0.016 2.25487,0.024 3.12722,-0.1817 6.24851,-0.2073 9.37744,-0.1736 2.3338,0.012 1.68352,-0.5434 2.51563,0.5046 0,0 1.408,-2.1896 1.408,-2.1896 v 0 c -2.41345,-1.2256 -1.11856,-0.9037 -3.89619,-0.9181 -3.13697,-0.032 -6.26678,-0.012 -9.40184,0.1735 -0.79444,0.01 -1.62779,0.2128 -2.38322,-0.033 -0.27502,-0.09 -0.50432,-0.2873 -0.77337,-0.3935 -1.48469,-0.5859 -2.51472,-0.4585 -4.10968,-0.4279 -2.78716,-0.017 -5.5874,-0.2309 -8.36302,0.095 -3.37686,0.2266 -6.88422,0.421 -10.19798,-0.4529 -1.23907,-0.3267 -2.25395,-1.3002 -3.5331,-1.5151 -1.39649,-0.4168 -2.76563,-0.9397 -4.18949,-1.2504 -4.79486,-1.0464 -9.75699,-1.156 -14.64176,-1.2271 -2.37558,0.1155 -3.64328,0.1466 -6.08218,0.4068 -0.52275,0.056 -1.03374,0.2029 -1.55751,0.2481 -2.22953,0.1925 -4.27518,-0.4041 -6.24521,-1.4381 0,0 -1.16419,2.3284 -1.16419,2.3284 z" />
      <path
         style="opacity:0.912024;fill:#00bd00;fill-opacity:1"
         id="path995"
         d="m 725.99909,1035.8122 c 0.99875,2.389 2.32708,4.7323 2.73457,7.3305 0.26003,1.658 -0.20188,4.1963 -0.34057,5.8327 -0.35147,4.3724 -0.037,8.7613 -0.0211,13.1405 -0.0485,4.6862 -0.0332,9.3728 -0.028,14.0592 0.004,3.896 3.8e-4,7.7921 2.5e-4,11.6881 6.2e-4,4.719 5.3e-4,9.438 4.4e-4,14.157 -7e-5,4.1114 -1e-5,8.2228 0,12.3341 -1e-5,3.1284 -1e-5,6.2568 -1e-5,9.3852 0,0 2.6032,0 2.6032,0 v 0 c 0,-3.1284 0,-6.2568 1e-5,-9.3852 0,-4.1113 -6e-5,-8.2227 0,-12.334 10e-5,-4.719 1.8e-4,-9.438 -4.3e-4,-14.157 1.2e-4,-3.897 0.004,-7.794 -2.6e-4,-11.691 -0.005,-4.6888 -0.0203,-9.3778 0.028,-14.0665 -0.0176,-4.3025 -0.32394,-8.6146 0.0118,-12.9105 0.18369,-2.1676 0.63671,-4.5088 0.27214,-6.684 -0.4578,-2.7314 -1.78939,-5.2127 -2.86732,-7.7246 0,0 -2.39273,1.0255 -2.39273,1.0255 z" />
    </g>
    <text
       xml:space="preserve"
       id="text1013"
       style="font-style:normal;font-weight:normal;font-size:40px;line-height:1.25;font-family:sans-serif;white-space:pre;shape-inside:url(#rect1015);opacity:0.870968;fill:#bc00ec;fill-opacity:1;stroke:none;filter:url(#filter1308);"
       transform="matrix(2.4290204,0.51557702,-0.61417901,2.8935606,-591.19824,-1598.5263)"><tspan
         x="976.41992"
         y="618.78032"><tspan
           style="font-style:normal;font-variant:normal;font-weight:normal;font-stretch:normal;font-family:Calibri;-inkscape-font-specification:Calibri;fill:#bc00ec">Goodbye</tspan></tspan></text>
    <path
       style="opacity:0.870968;fill:#bc00ec;fill-opacity:1;stroke:#0a0a0a;stroke-width:1.41906px;stroke-linecap:butt;stroke-linejoin:miter;stroke-opacity:1;filter:url(#filter1308)"
       d="M 953.75868,89.920454 C 788.29282,231.41886 788.29282,228.69773 788.29282,228.69773 L 942.14703,375.63837 1098.9042,217.81324 Z"
       id="path1019" />
    <text
       xml:space="preserve"
       id="text1027"
       style="font-style:normal;font-weight:normal;font-size:40px;line-height:1.25;font-family:sans-serif;white-space:pre;shape-inside:url(#rect1029);opacity:0.870968;fill:#0a0a0a;fill-opacity:1;stroke:none;filter:url(#filter1308);"
       transform="matrix(1.9115479,0,0,2.3418439,233.25007,-1046.5331)"><tspan
         x="316.89062"
         y="557.38188"><tspan>Hallo!</tspan></tspan></text>
    <path
       style="opacity:0.870968;fill:#2e3ada;fill-opacity:0.425606;stroke:#0a0a0a;stroke-width:1.43471px;stroke-linecap:butt;stroke-linejoin:miter;stroke-opacity:1;filter:url(#filter1308)"
       d="m 348.28022,422.34295 c 28.53017,-14.15475 63.00726,-15.0258 92.80408,-3.77959 29.79681,11.2462 54.73328,34.13693 69.90887,62.13744 18.68576,34.47713 22.59303,76.21665 12.84839,114.2018 -9.74465,37.98515 -32.65237,72.09736 -62.65848,97.34539 -38.64139,32.51401 -89.76283,50.53904 -140.13143,46.88915 -50.3686,-3.64988 -99.2061,-29.62547 -128.38124,-70.84597 -14.58756,-20.61025 -24.25416,-44.72635 -27.60643,-69.75317 -3.35227,-25.02682 -0.35052,-50.92025 8.95188,-74.39459 9.30239,-23.47435 24.91745,-44.45902 44.93635,-59.84808 20.0189,-15.38906 44.40683,-25.10395 69.55592,-27.36291 13.37392,-1.20128 27.18717,-0.39029 39.84806,-4.86316 6.97466,-2.46403 13.29763,-6.43874 19.92403,-9.72631 z"
       id="path1039"
       inkscape:path-effect="#path-effect1041"
       inkscape:original-d="m 348.28022,422.34295 c 6.64034,-3.2431 180.42152,-9.72753 162.71295,58.35785 -17.70858,68.08538 0.005,297.45964 -49.81009,211.54719 -49.8084,-85.90101 -185.95931,-220.7885 -172.67495,-255.31557 3.65204,-9.49196 26.56637,-3.24111 39.84806,-4.86316 13.28169,-1.62205 13.28369,-6.48321 19.92403,-9.72631 z"
       sodipodi:nodetypes="csssc" />
    <text
       xml:space="preserve"
       id="text1043"
       style="font-style:normal;font-weight:normal;font-size:40px;line-height:1.25;font-family:sans-serif;white-space:pre;shape-inside:url(#rect1045);opacity:0.870968;fill:#f1f1fd;fill-opacity:1;stroke:none;filter:url(#filter1308);"
       transform="matrix(1.1772644,0,0,5.1843479,-120.77725,-2244.4233)"><tspan
         x="293.12305"
         y="557.38188"><tspan
           style="fill:#f1f1fd">WELCOME</tspan></tspan></text>
    <text
       xml:space="preserve"
       id="text1049"
       style="font-style:normal;font-variant:normal;font-weight:normal;font-stretch:normal;font-size:40px;line-height:1.25;font-family:'Rage Italic';-inkscape-font-specification:'Rage Italic, ';white-space:pre;shape-inside:url(#rect1051);opacity:0.870968;fill:#35c0e4;fill-opacity:1;stroke:none;filter:url(#filter1308);"
       transform="matrix(3.6552446,0,0,5.8031611,-1865.3258,-2265.0071)"><tspan
         x="671.41211"
         y="498.75617"><tspan
           style="font-style:normal;font-variant:normal;font-weight:normal;font-stretch:normal;font-family:'Rage Italic';-inkscape-font-specification:'Rage Italic, ';fill:#35c0e4">How are you?</tspan></tspan></text>
    <g
       id="g1102"
       transform="matrix(0.85600015,0,0,0.87703451,403.02443,207.42191)"
       style="opacity:0.870968;filter:url(#filter1308)">
      <path
         style="opacity:0.912024;fill:#00c1ec;fill-opacity:1"
         id="path1081"
         d="m 1212.1073,800.22508 c 0.099,8.52289 -1.533,16.91921 -3.0625,25.26322 -3.2778,15.2786 -6.2604,30.62 -8.8664,46.02752 -1.0438,5.88968 -0.5139,3.0732 -1.5754,8.45209 -1.0835,5.4961 6.6891,7.02846 7.7727,1.53236 v 0 c 1.093,-5.5495 0.5508,-2.66241 1.614,-8.66358 2.5987,-15.3723 5.5817,-30.67678 8.8477,-45.92104 1.6135,-8.81556 3.3002,-17.68765 3.1922,-26.69057 0,-5.60189 -7.9223,-5.60189 -7.9223,0 z" />
      <path
         style="opacity:0.912024;fill:#00c1ec;fill-opacity:1"
         id="path1083"
         d="m 1212.3114,807.15744 c 3.7436,5.72312 7.0519,11.70581 10.1274,17.81035 3.2543,6.8866 5.6917,14.14684 7.9497,21.41346 1.7356,5.69848 3.6706,11.33154 5.1104,17.11464 1.7226,7.40386 2.822,14.93044 4.2622,22.39259 0.8697,4.93599 1.3174,11.22167 8.4306,10.36148 2.575,-0.31139 4.6937,-3.70013 6.0521,-5.43384 4.5966,-7.40705 7.4493,-15.67377 10.3238,-23.85088 1.8599,-4.7523 2.7172,-9.79066 4.0777,-14.68401 0.4248,-1.52808 1.334,-4.19926 1.8438,-5.7304 1.7807,-4.31257 3.1461,-8.78064 5.0366,-13.04734 1.2138,-3.16985 2.6472,-6.24419 4.0512,-9.33177 2.3186,-5.0995 -4.8931,-8.37861 -7.2118,-3.27912 v 0 c -1.4169,3.11631 -2.8646,6.21928 -4.0899,9.41838 -1.9717,4.50172 -3.461,9.18499 -5.3035,13.73966 -0.6632,1.99581 -1.4568,4.31076 -2.0153,6.3217 -1.2922,4.65322 -2.0932,9.44696 -3.8628,13.96573 -2.6098,7.42515 -5.1799,14.92348 -9.196,21.73587 -2.0921,3.04698 -1.3099,1.46286 1.2445,4.11655 0.096,0.1001 -0.3635,0.17182 -0.4146,0.0426 -0.3196,-0.8081 -0.4013,-1.69138 -0.5743,-2.543 -0.223,-1.0974 -0.4089,-2.20199 -0.6134,-3.30299 -1.4674,-7.60297 -2.5818,-15.27306 -4.3553,-22.81315 -1.4878,-5.92584 -3.4392,-11.70998 -5.232,-17.54829 -2.3965,-7.67993 -4.9719,-15.35427 -8.4394,-22.62399 -3.1873,-6.31936 -6.6128,-12.51355 -10.4836,-18.44304 -2.969,-4.7504 -9.6871,-0.5516 -6.7181,4.19879 z" />
      <path
         style="opacity:0.912024;fill:#00c1ec;fill-opacity:1"
         id="path1085"
         d="m 1284.2369,887.29424 c 3.9395,0.12601 7.7551,-0.98122 11.5542,-1.86581 6.7322,-1.65374 9.4301,-3.97925 13.1289,-9.75754 2.396,-4.20864 3.5324,-8.86371 4.0558,-13.63295 -0.2714,-5.79523 -3.8919,-7.97559 -9.0333,-9.07666 -4.2055,-0.5165 -8.474,-0.49222 -12.6991,-0.26479 -5.6397,1.16806 -10.2592,4.46612 -12.947,9.5916 -0.4446,0.848 -0.7521,1.76116 -1.1282,2.64173 -1.6705,4.82065 -1.7281,9.94534 -1.7828,14.98718 -0.01,3.92182 0.043,7.84348 0.072,11.76515 -0.1189,3.40503 0.023,6.69254 1.1198,9.93682 1.47,4.14046 5.7827,5.39184 9.0445,7.68858 2.9711,2.1104 6.0881,4.48769 9.7701,5.16834 0.9139,0.16894 1.8525,0.15133 2.7788,0.22699 3.4389,-0.0774 6.6967,-1.11935 9.7947,-2.53385 5.0753,-2.37125 1.7218,-9.54876 -3.3534,-7.17751 v 0 c -1.9232,0.93214 -3.9808,1.59796 -6.1184,1.79568 -3.2297,0.27305 -5.9341,-2.37657 -8.4361,-4.04373 -1.5226,-1.00356 -3.068,-1.8425 -4.6342,-2.76667 -0.29,-0.17112 -0.5456,-0.42737 -0.8721,-0.50975 -0.096,-0.0241 -0.092,0.32205 -0.1586,0.24969 -0.2068,-0.22351 -0.253,-0.55407 -0.3795,-0.83111 -1.0318,-2.26067 -0.4848,-4.85772 -0.6335,-7.26225 -0.029,-3.87414 -0.076,-7.74826 -0.072,-11.62254 0.042,-4.03413 0.015,-8.15046 1.1849,-12.05055 1.5493,-3.97793 3.051,-5.83031 7.197,-7.34408 3.5654,-0.21181 7.1613,-0.19544 10.7199,0.12751 0.5763,0.0938 1.5486,0.51404 2.1285,0.48025 0.055,-0.003 0.2735,-0.37752 0.3457,-0.3488 0.123,0.049 0.1432,0.22283 0.2148,0.33425 -0.3652,3.57534 -1.1636,7.07765 -2.8917,10.26566 -2.4803,4.08838 -3.4434,5.02841 -8.2119,6.24751 -3.2085,0.7472 -6.4307,1.75226 -9.7575,1.65938 -5.6019,0 -5.6019,7.92227 0,7.92227 z" />
      <path
         style="opacity:0.912024;fill:#00c1ec;fill-opacity:1"
         id="path1087"
         d="m 1340.8971,871.86473 c -4.4581,5.83753 -6.941,12.83872 -9.5542,19.62828 -2.0665,5.02255 -3.3461,10.3125 -4.0811,15.68118 -0.069,1.39957 -0.3081,2.76538 -0.6212,4.1261 -1.2037,5.47105 6.5336,7.17324 7.7372,1.70218 v 0 c 0.3361,-1.57579 0.6555,-3.15102 0.7347,-4.76607 0.6352,-4.76252 1.7861,-9.45093 3.6249,-13.90028 2.2692,-5.90851 4.3966,-12.00629 8.0809,-17.20812 3.7217,-4.18691 -2.1995,-9.45018 -5.9212,-5.26327 z" />
      <path
         style="opacity:0.912024;fill:#00c1ec;fill-opacity:1"
         id="path1089"
         d="m 1356.7766,855.14884 c 0.6631,-1.74891 0.274,-0.64105 1.0537,-3.36134 1.541,-5.38576 -6.0756,-7.56511 -7.6166,-2.17935 v 0 c -0.854,2.98994 -0.4212,1.47061 -1.2982,4.55805 -0.6948,5.55863 7.1663,6.54127 7.8611,0.98264 z" />
      <path
         style="opacity:0.912024;fill:#00c1ec;fill-opacity:1"
         id="path1091"
         d="m 1368.5721,883.17201 c 0.1233,4.30606 0.041,8.53623 -0.7396,12.77805 -1.3992,5.28862 -3.765,10.29659 -6.5239,15.00375 -3.0747,4.20812 -5.6999,8.68224 -7.9236,13.38957 -1.0636,2.53727 -1.633,5.23051 -2.5242,7.82581 -1.8025,5.30399 5.6985,7.85306 7.501,2.54907 v 0 c 0.7822,-2.32111 1.3599,-4.69791 2.1914,-7.00159 2.1142,-4.513 4.6986,-8.74013 7.6083,-12.78777 3.182,-5.5318 5.9736,-11.35855 7.4709,-17.59166 0.2038,-1.1786 0.459,-2.34945 0.6114,-3.53579 0.4533,-3.52803 0.1803,-7.08617 0.2506,-10.62944 0,-5.6019 -7.9223,-5.6019 -7.9223,0 z" />
      <path
         style="opacity:0.912024;fill:#00c1ec;fill-opacity:1"
         id="path1093"
         d="m 1373.4809,887.29424 c 4.9338,0.35833 9.8686,0.62786 14.7955,1.07648 4.9832,0.17858 7.2264,1.69658 10.0827,5.59487 3.0842,3.66054 4.3139,8.01038 5.1473,12.61395 0.9558,4.96148 0.1499,9.40835 -1.0301,14.22989 -1.6546,4.77734 -4.4244,8.93733 -7.5006,12.89163 -1.6284,2.0909 -3.0607,4.32149 -4.6071,6.4723 -3.2679,4.5499 3.1666,9.1715 6.4346,4.6216 v 0 c 1.4867,-2.07172 2.8708,-4.21443 4.4288,-6.2338 3.7569,-4.84236 7.0732,-9.99654 8.9451,-15.8914 1.3804,-5.77632 2.3032,-11.6107 1.1207,-17.52411 -1.1226,-6.01722 -2.7261,-11.14782 -6.6434,-15.98956 -0.673,-0.85773 -1.2836,-1.76844 -2.0192,-2.57318 -3.5639,-3.89901 -8.4043,-5.91694 -13.6408,-6.10186 -5.1651,-0.46982 -10.339,-0.7651 -15.5135,-1.10908 -5.6019,0 -5.6019,7.92227 0,7.92227 z" />
    </g>
    <g
       id="g1118"
       style="opacity:0.870968;filter:url(#filter1308)"
       transform="translate(6.7630983,-0.71620469)">
      <path
         style="opacity:0.912024;fill:#00c1ec;fill-opacity:1"
         id="path1104"
         d="m 386.62569,1013.9977 c 6.15704,5.7808 12.44922,11.3731 18.28336,17.489 3.15177,3.3769 1.62848,1.7359 4.57146,4.9214 3.80147,4.1146 9.6204,-1.2615 5.81893,-5.3761 v 0 c -2.99051,-3.2367 -1.438,-1.5645 -4.65931,-5.015 -5.98671,-6.27 -12.4322,-12.0156 -18.75117,-17.9405 -4.18691,-3.7217 -9.45018,2.1995 -5.26327,5.9212 z" />
      <path
         style="opacity:0.912024;fill:#00c1ec;fill-opacity:1"
         id="path1106"
         d="m 429.78315,989.25082 c 0,5.1732 0,10.3464 0,15.51958 0.33567,6.5349 -1.49818,12.8405 -3.07281,19.1074 -1.72491,6.2309 -4.55995,12.0611 -7.05303,18.0052 -0.3764,0.7585 -0.73215,1.5276 -1.12922,2.2754 -1.58318,2.9818 -0.83823,1.0997 -2.44404,4.6495 -1.29367,2.8598 -2.12237,5.6978 -2.83706,8.7445 -0.929,5.7452 -3.03021,11.1802 -4.72571,16.7182 -0.68974,2.6061 -1.84009,5.0488 -2.91096,7.511 -2.23177,5.1381 5.03465,8.2943 7.26641,3.1562 v 0 c 1.18746,-2.7372 2.44007,-5.4626 3.22121,-8.3528 1.74336,-5.7212 3.91178,-11.3349 4.87228,-17.2679 1.0489,-4.7562 2.43784,-7.4109 4.66438,-11.6572 0.46755,-0.8917 0.88562,-1.8085 1.32843,-2.7127 2.64705,-6.3114 5.64659,-12.5069 7.43076,-19.1388 1.73308,-6.8976 3.66022,-13.8495 3.31163,-21.038 0,-5.17318 0,-10.34638 0,-15.51958 0,-5.60189 -7.92227,-5.60189 -7.92227,0 z" />
      <path
         style="opacity:0.912024;fill:#00c1ec;fill-opacity:1"
         id="path1108"
         d="m 454.37725,1060.7161 c 4.88859,-3.4901 10.29807,-6.1049 15.30286,-9.41 3.8135,-2.9047 7.70996,-5.8252 10.90209,-9.4348 1.81381,-2.0511 2.1353,-2.7115 3.57461,-4.9241 2.20698,-3.5109 2.92654,-7.398 3.13913,-11.4611 -0.22554,-0.9271 -0.30547,-1.9023 -0.67661,-2.7812 -1.50679,-3.5686 -5.50781,-4.957 -9.12411,-4.677 -1.0487,0.081 -2.07354,0.3548 -3.1103,0.5323 -6.32964,1.6599 -10.81043,6.2736 -14.92235,11.0888 -4.03004,5.0147 -6.76673,10.859 -9.25443,16.7472 -2.18676,5.3655 -2.92033,11.0912 -3.37203,16.8192 -0.14066,7.2922 4.15102,11.897 9.78078,15.8036 4.50317,2.0628 9.51274,3.441 14.51283,3.0755 0.94409,-0.069 1.8747,-0.2642 2.81205,-0.3963 4.38619,-1.1542 8.39596,-3.3257 12.48563,-5.2277 5.07905,-2.3631 1.73707,-9.546 -3.34198,-7.1828 v 0 c -3.41422,1.5891 -6.76895,3.3457 -10.33463,4.5783 -1.31985,0.2233 -2.28848,0.4596 -3.63683,0.4027 -2.75167,-0.116 -5.47483,-0.9419 -8.06112,-1.8136 -2.29964,-1.4901 -5.58948,-3.9606 -6.19535,-6.8308 -0.12364,-0.5857 -0.0821,-1.1944 -0.1232,-1.7916 0.37791,-4.8838 0.93626,-9.7764 2.77561,-14.363 2.15937,-5.1517 4.52242,-10.2811 7.99576,-14.6978 2.90348,-3.4559 6.01319,-7.0276 10.44572,-8.4459 0.46622,-0.1257 0.92137,-0.3039 1.39867,-0.3772 1.34757,-0.2067 1.29255,0.157 2.03341,-0.8565 -0.12476,2.6841 -0.43695,5.2346 -1.89496,7.5775 -3.15325,5.0116 -7.45047,8.5555 -12.19024,12.0362 -5.11104,3.4142 -10.71659,6.0113 -15.67438,9.6723 -4.48151,3.3612 0.27185,9.699 4.75337,6.3378 z" />
      <path
         style="opacity:0.912024;fill:#00c1ec;fill-opacity:1"
         id="path1112"
         d="m 528.22311,1002.3053 c -6.11277,0.5483 -11.96616,2.1843 -17.48556,4.8283 -5.45829,2.7088 -8.27566,5.7065 -10.50319,11.3253 -1.24389,3.8991 -1.20634,8.0135 -1.22317,12.0608 -0.0385,2.7149 -0.12921,5.6656 1.95098,7.7839 1.78726,1.82 2.92021,1.8977 5.18661,2.621 6.24223,1.4222 12.60575,0.4074 18.8471,-0.4401 3.25745,-0.4507 6.52723,-0.8063 9.80349,-1.0873 1.03327,-0.089 4.15012,-0.379 5.25815,-0.2405 0.52307,0.065 0.99426,0.3506 1.49139,0.526 1.83616,1.7261 3.47792,4.9652 3.10097,7.5351 -0.0918,0.6258 -0.3531,1.2147 -0.52965,1.822 -3.40153,4.5035 -8.7385,5.9896 -13.90817,7.5234 -5.60179,1.4428 -11.38476,1.8431 -17.14333,2.042 -2.6059,0.066 -5.21272,0.064 -7.81922,0.067 -5.60188,0.01 -5.59311,7.9284 0.009,7.9222 v 0 c 2.69607,0 5.39248,-8e-4 8.08789,-0.071 6.4327,-0.2283 12.88879,-0.7089 19.13506,-2.3691 6.21581,-1.8706 13.03572,-3.9312 17.08884,-9.4316 0.93031,-1.2625 1.54153,-2.7315 2.31229,-4.0972 0.22175,-1.3435 0.62695,-2.6692 0.66523,-4.0303 0.12647,-4.4971 -2.23773,-9.8029 -5.72352,-12.6668 -0.98397,-0.8084 -2.20267,-1.2787 -3.30401,-1.9181 -1.19008,-0.2581 -2.3598,-0.6411 -3.57024,-0.7743 -1.00046,-0.1101 -2.01369,0 -3.0191,0.049 -4.35185,0.2024 -8.68022,0.8401 -13.00148,1.3499 -5.17139,0.7031 -10.44921,1.6544 -15.64926,0.66 -0.3229,-0.055 -0.6465,-0.2255 -0.96869,-0.1661 -0.224,0.041 0.0489,0.557 -0.15091,0.6664 -0.0742,0.041 -0.19453,-0.065 -0.20584,-0.1488 -0.0659,-0.4888 -0.0103,-0.9864 -0.0137,-1.4796 -0.004,-0.5385 -0.005,-1.0769 -0.007,-1.6154 0.0115,-3.0952 -0.0706,-6.2484 0.70324,-9.2691 1.24638,-3.5074 3.14774,-5.4174 6.56536,-7.0235 4.64742,-2.3049 9.64391,-3.5776 14.8094,-4.0701 5.57409,-0.5574 4.7858,-8.4403 -0.78829,-7.8829 z" />
    </g>
    <text
       xml:space="preserve"
       id="text1120"
       style="font-style:normal;font-variant:normal;font-weight:normal;font-stretch:normal;font-size:40px;line-height:1.25;font-family:'Script MT Bold';-inkscape-font-specification:'Script MT Bold, ';white-space:pre;shape-inside:url(#rect1122);opacity:0.870968;fill:#ffbce2;fill-opacity:1;stroke:none;filter:url(#filter1308);"
       transform="matrix(2.9918733,0.4779366,-0.75264236,4.7115257,-1065.132,-3211.9616)"><tspan
         x="865.50781"
         y="779.08996"><tspan
           style="font-style:normal;font-variant:normal;font-weight:normal;font-stretch:normal;font-family:'Script MT Bold';-inkscape-font-specification:'Script MT Bold, ';fill:#ffbce2">Danke!</tspan></tspan></text>
    <path
       style="opacity:0.794344;fill:#e47b35;fill-opacity:0;stroke-width:1.98057;filter:url(#filter1308)"
       d="M 159.99036,946.1147 C 85.166883,928.84147 34.500255,873.25633 27.1647,800.39486 c -2.649423,-26.31578 7.196798,-64.02667 23.083953,-88.41121 9.882922,-15.16889 31.057292,-35.53224 45.571176,-43.8257 18.164651,-10.37957 38.697101,-16.12408 65.442001,-18.3092 22.5339,-1.84106 25.64203,-2.616 43.1939,-10.76941 10.40203,-4.83208 21.36374,-9.37907 24.35935,-10.10443 5.34458,-1.29415 5.44656,-1.14793 5.44656,7.80842 0,7.80688 0.57304,9.12726 3.96114,9.12726 3.42036,0 3.96113,-1.32038 3.96113,-9.67184 0,-8.30767 0.61633,-9.83302 4.36979,-10.81456 2.40338,-0.6285 4.6592,-0.85332 5.01291,-0.49959 0.35373,0.35372 1.18523,5.22028 1.84779,10.81456 1.91101,16.13546 8.47663,12.05734 8.54815,-5.30952 0.0248,-5.99183 0.50513,-6.51339 5.4736,-5.9417 5.08001,0.58452 5.48684,1.32645 6.0452,11.02467 l 0.59865,10.39798 h 12.77018 12.77019 v -6.93198 c 0,-3.8126 0.89125,-6.93199 1.98057,-6.93199 1.08931,0 1.98056,3.11939 1.98056,6.93199 v 6.93198 h 12.80122 12.80124 l 13.1666,12.31672 c 23.23077,21.73123 36.17096,44.74284 42.63534,75.81854 3.88058,18.65486 4.60456,38.98246 1.96086,55.05635 -1.2311,7.48517 -3.30901,11.18099 -9.78478,17.40349 -6.59602,6.33805 -8.22175,9.28211 -8.22175,14.88887 0,3.84376 0.92261,8.71257 2.05025,10.81958 2.40397,4.49187 0.29827,9.37143 -8.33029,19.30378 -3.13453,3.60816 -7.56359,10.52676 -9.84237,15.37465 -4.64744,9.88703 -9.18116,14.29591 -6.78467,6.59784 8.63703,-27.74396 9.24534,-40.19965 2.60626,-53.36536 -3.57765,-7.09472 -5.62776,-8.96857 -10.39797,-9.50405 -3.26794,-0.36684 -6.67656,-1.96608 -7.57472,-3.55387 -1.33863,-2.36644 -2.58833,-1.94514 -6.93199,2.3369 -2.91443,2.87308 -9.75525,8.12402 -15.20181,11.66876 -10.04682,6.53869 -13.98835,12.99172 -7.93534,12.99172 1.78651,0 6.30815,-2.33393 10.04805,-5.1865 3.73991,-2.85257 6.79985,-4.70248 6.79985,-4.1109 0,0.59155 -5.88318,16.9493 -13.07371,36.35052 -14.65761,39.54859 -16.83255,48.20844 -12.10758,48.20844 1.84016,0 4.19935,-3.36372 5.90367,-8.41741 l 2.83873,-8.41741 1.44429,6.43439 c 0.79434,3.53889 3.19047,7.65746 5.32473,9.15236 3.67926,2.57703 3.38871,3.03282 -5.60338,8.78989 -15.86777,10.15913 -37.10369,19.87625 -55.44169,25.36891 -14.52641,4.35103 -22.19105,5.33439 -46.13855,5.91952 -19.73093,0.48211 -32.43711,-0.15686 -40.60163,-2.04162 z"
       id="path1144" />
    <path
       style="opacity:0.794344;fill:#e47b35;fill-opacity:0;stroke-width:1.98057;filter:url(#filter1308)"
       d="M 159.99036,946.1147 C 85.166883,928.84147 34.500255,873.25633 27.1647,800.39486 c -2.649423,-26.31578 7.196798,-64.02667 23.083953,-88.41121 9.882922,-15.16889 31.057292,-35.53224 45.571176,-43.8257 18.164651,-10.37957 38.697101,-16.12408 65.442001,-18.3092 22.5339,-1.84106 25.64203,-2.616 43.1939,-10.76941 10.40203,-4.83208 21.36374,-9.37907 24.35935,-10.10443 5.34458,-1.29415 5.44656,-1.14793 5.44656,7.80842 0,7.80688 0.57304,9.12726 3.96114,9.12726 3.42036,0 3.96113,-1.32038 3.96113,-9.67184 0,-8.30767 0.61633,-9.83302 4.36979,-10.81456 2.40338,-0.6285 4.6592,-0.85332 5.01291,-0.49959 0.35373,0.35372 1.18523,5.22028 1.84779,10.81456 1.91101,16.13546 8.47663,12.05734 8.54815,-5.30952 0.0248,-5.99183 0.50513,-6.51339 5.4736,-5.9417 5.08001,0.58452 5.48684,1.32645 6.0452,11.02467 l 0.59865,10.39798 h 12.77018 12.77019 v -6.93198 c 0,-3.8126 0.89125,-6.93199 1.98057,-6.93199 1.08931,0 1.98056,3.11939 1.98056,6.93199 v 6.93198 h 12.80122 12.80124 l 13.1666,12.31672 c 23.23077,21.73123 36.17096,44.74284 42.63534,75.81854 3.88058,18.65486 4.60456,38.98246 1.96086,55.05635 -1.2311,7.48517 -3.30901,11.18099 -9.78478,17.40349 -6.59602,6.33805 -8.22175,9.28211 -8.22175,14.88887 0,3.84376 0.92261,8.71257 2.05025,10.81958 2.40397,4.49187 0.29827,9.37143 -8.33029,19.30378 -3.13453,3.60816 -7.56359,10.52676 -9.84237,15.37465 -4.64744,9.88703 -9.18116,14.29591 -6.78467,6.59784 8.63703,-27.74396 9.24534,-40.19965 2.60626,-53.36536 -3.57765,-7.09472 -5.62776,-8.96857 -10.39797,-9.50405 -3.26794,-0.36684 -6.67656,-1.96608 -7.57472,-3.55387 -1.33863,-2.36644 -2.58833,-1.94514 -6.93199,2.3369 -2.91443,2.87308 -9.75525,8.12402 -15.20181,11.66876 -10.04682,6.53869 -13.98835,12.99172 -7.93534,12.99172 1.78651,0 6.30815,-2.33393 10.04805,-5.1865 3.73991,-2.85257 6.79985,-4.70248 6.79985,-4.1109 0,0.59155 -5.88318,16.9493 -13.07371,36.35052 -14.65761,39.54859 -16.83255,48.20844 -12.10758,48.20844 1.84016,0 4.19935,-3.36372 5.90367,-8.41741 l 2.83873,-8.41741 1.44429,6.43439 c 0.79434,3.53889 3.19047,7.65746 5.32473,9.15236 3.67926,2.57703 3.38871,3.03282 -5.60338,8.78989 -15.86777,10.15913 -37.10369,19.87625 -55.44169,25.36891 -14.52641,4.35103 -22.19105,5.33439 -46.13855,5.91952 -19.73093,0.48211 -32.43711,-0.15686 -40.60163,-2.04162 z"
       id="path1146" />
    <path
       style="opacity:0.794344;fill:#e47b35;fill-opacity:0;stroke-width:1.98057;filter:url(#filter1308)"
       d="M 159.99036,946.1147 C 85.166883,928.84147 34.500255,873.25633 27.1647,800.39486 c -2.649423,-26.31578 7.196798,-64.02667 23.083953,-88.41121 9.882922,-15.16889 31.057292,-35.53224 45.571176,-43.8257 18.164651,-10.37957 38.697101,-16.12408 65.442001,-18.3092 22.5339,-1.84106 25.64203,-2.616 43.1939,-10.76941 10.40203,-4.83208 21.36374,-9.37907 24.35935,-10.10443 5.34458,-1.29415 5.44656,-1.14793 5.44656,7.80842 0,7.80688 0.57304,9.12726 3.96114,9.12726 3.42036,0 3.96113,-1.32038 3.96113,-9.67184 0,-8.30767 0.61633,-9.83302 4.36979,-10.81456 2.40338,-0.6285 4.6592,-0.85332 5.01291,-0.49959 0.35373,0.35372 1.18523,5.22028 1.84779,10.81456 1.91101,16.13546 8.47663,12.05734 8.54815,-5.30952 0.0248,-5.99183 0.50513,-6.51339 5.4736,-5.9417 5.08001,0.58452 5.48684,1.32645 6.0452,11.02467 l 0.59865,10.39798 h 12.77018 12.77019 v -6.93198 c 0,-3.8126 0.89125,-6.93199 1.98057,-6.93199 1.08931,0 1.98056,3.11939 1.98056,6.93199 v 6.93198 h 12.80122 12.80124 l 13.1666,12.31672 c 23.23077,21.73123 36.17096,44.74284 42.63534,75.81854 3.88058,18.65486 4.60456,38.98246 1.96086,55.05635 -1.2311,7.48517 -3.30901,11.18099 -9.78478,17.40349 -6.59602,6.33805 -8.22175,9.28211 -8.22175,14.88887 0,3.84376 0.92261,8.71257 2.05025,10.81958 2.40397,4.49187 0.29827,9.37143 -8.33029,19.30378 -3.13453,3.60816 -7.56359,10.52676 -9.84237,15.37465 -4.64744,9.88703 -9.18116,14.29591 -6.78467,6.59784 8.63703,-27.74396 9.24534,-40.19965 2.60626,-53.36536 -3.57765,-7.09472 -5.62776,-8.96857 -10.39797,-9.50405 -3.26794,-0.36684 -6.67656,-1.96608 -7.57472,-3.55387 -1.33863,-2.36644 -2.58833,-1.94514 -6.93199,2.3369 -2.91443,2.87308 -9.75525,8.12402 -15.20181,11.66876 -10.04682,6.53869 -13.98835,12.99172 -7.93534,12.99172 1.78651,0 6.30815,-2.33393 10.04805,-5.1865 3.73991,-2.85257 6.79985,-4.70248 6.79985,-4.1109 0,0.59155 -5.88318,16.9493 -13.07371,36.35052 -14.65761,39.54859 -16.83255,48.20844 -12.10758,48.20844 1.84016,0 4.19935,-3.36372 5.90367,-8.41741 l 2.83873,-8.41741 1.44429,6.43439 c 0.79434,3.53889 3.19047,7.65746 5.32473,9.15236 3.67926,2.57703 3.38871,3.03282 -5.60338,8.78989 -15.86777,10.15913 -37.10369,19.87625 -55.44169,25.36891 -14.52641,4.35103 -22.19105,5.33439 -46.13855,5.91952 -19.73093,0.48211 -32.43711,-0.15686 -40.60163,-2.04162 z"
       id="path1148" />
    <path
       style="mix-blend-mode:normal;fill:url(#pattern1350);fill-opacity:1;fill-rule:nonzero;stroke:#000000;stroke-width:3.9949;stroke-linecap:butt;stroke-linejoin:miter;stroke-miterlimit:4;stroke-dasharray:3.9949, 7.98979;stroke-dashoffset:0;stroke-opacity:1;marker-start:url(#Tail);paint-order:markers stroke fill"
       d="m 1259.4321,406.4316 -246.1202,85.37526 v 0 l 2.344,12.19633"
       id="path1382" />
    <path
       style="opacity:0.97;fill:#ff0000;fill-rule:nonzero;stroke:#1c1313;stroke-width:5.488;stroke-linecap:butt;stroke-linejoin:round;stroke-miterlimit:4;stroke-dasharray:5.488, 5.488;stroke-dashoffset:2.1952;stroke-opacity:1;marker-start:url(#Arrow2Sstart);marker-end:url(#marker6092)"
       d="m 495.14187,418.65655 c 57.81006,-6.33722 148.58147,-16.24736 253.52326,-27.69352 0.003,-3.6e-4 0.0864,-0.009 0.0897,-0.01 3e-5,8.8e-4 -0.003,-0.0912 -0.003,-0.0903 -1.80919,-57.03508 -3.79698,-119.87048 -5.78499,-182.71305 18.94791,-1.66486 37.85761,-3.32662 47.32587,-4.22025 -4.75336,0.44863 -19.05985,1.30294 -23.81321,1.75157 4.75336,-0.44863 18.96705,-2.28613 23.72041,-2.73477 -9.50672,0.89727 -28.50857,2.81471 -47.51042,4.73214 -1.30585,0.14105 -0.76658,0.0866 -2.07242,0.22765 0.61628,0.009 1.23257,0.0174 1.84886,0.0262 2.09545,62.88387 4.19091,125.76773 6.08803,182.8467 -104.89128,11.55602 -195.61864,21.54202 -253.41221,27.87744 z"
       id="path3334"
       inkscape:path-effect="#path-effect3336"
       inkscape:original-d="m 495.14187,418.65655 253.51264,-27.79043 -5.9417,-182.94172 23.76681,-2.24317 v 0" />
  </g>
</svg>
